G75*
%MOIN*%
%OFA0B0*%
%FSLAX25Y25*%
%IPPOS*%
%LPD*%
%AMOC8*
5,1,8,0,0,1.08239X$1,22.5*
%
%ADD10OC8,0.05600*%
%ADD11OC8,0.06000*%
%ADD12OC8,0.05200*%
%ADD13C,0.01200*%
%ADD14C,0.02000*%
D10*
X0037000Y0056300D03*
X0037000Y0066300D03*
X0047000Y0066300D03*
X0047000Y0056300D03*
X0057000Y0056300D03*
X0057000Y0066300D03*
X0067000Y0066300D03*
X0067000Y0056300D03*
X0077000Y0056300D03*
X0077000Y0066300D03*
X0087000Y0066300D03*
X0087000Y0056300D03*
X0097000Y0056300D03*
X0097000Y0066300D03*
X0107000Y0066300D03*
X0107000Y0056300D03*
X0117000Y0056300D03*
X0117000Y0066300D03*
X0127000Y0066300D03*
X0127000Y0056300D03*
X0057000Y0103800D03*
X0057000Y0113800D03*
X0047000Y0113800D03*
X0047000Y0103800D03*
X0037000Y0103800D03*
X0037000Y0113800D03*
D11*
X0037000Y0141300D03*
X0037000Y0151300D03*
X0027000Y0151300D03*
X0027000Y0141300D03*
X0047000Y0141300D03*
X0047000Y0151300D03*
X0057000Y0151300D03*
X0057000Y0141300D03*
X0067000Y0141300D03*
X0067000Y0151300D03*
X0097000Y0151300D03*
X0097000Y0141300D03*
X0107000Y0141300D03*
X0107000Y0151300D03*
X0117000Y0151300D03*
X0117000Y0141300D03*
X0127000Y0141300D03*
X0127000Y0151300D03*
X0137000Y0151300D03*
X0137000Y0141300D03*
X0139500Y0096300D03*
X0129500Y0096300D03*
X0119500Y0096300D03*
X0109500Y0096300D03*
X0099500Y0096300D03*
X0089500Y0096300D03*
D12*
X0087000Y0036300D03*
X0097000Y0036300D03*
X0077000Y0036300D03*
X0067000Y0036300D03*
D13*
X0077000Y0048800D02*
X0099500Y0048800D01*
X0107000Y0056300D01*
X0097000Y0056300D02*
X0092000Y0061300D01*
X0092000Y0081300D01*
X0059500Y0113800D01*
X0057000Y0113800D01*
X0059500Y0108800D02*
X0052000Y0108800D01*
X0047000Y0113800D01*
X0042000Y0108800D02*
X0037000Y0113800D01*
X0042000Y0108800D02*
X0042000Y0096300D01*
X0052000Y0086300D01*
X0052000Y0053800D01*
X0054500Y0051300D01*
X0062000Y0051300D01*
X0067000Y0056300D01*
X0064500Y0061300D02*
X0069500Y0061300D01*
X0072000Y0058800D01*
X0072000Y0056300D01*
X0072000Y0053800D01*
X0077000Y0048800D01*
X0077000Y0056300D02*
X0082000Y0061300D01*
X0082000Y0081300D01*
X0082000Y0086300D01*
X0059500Y0108800D01*
X0047000Y0103800D02*
X0047000Y0096300D01*
X0062000Y0081300D01*
X0062000Y0063800D01*
X0064500Y0061300D01*
X0099500Y0096300D02*
X0107000Y0088800D01*
X0139500Y0088800D01*
X0144500Y0093800D01*
X0144500Y0143800D01*
X0137000Y0151300D01*
X0137000Y0141300D02*
X0137000Y0108800D01*
X0129500Y0101300D01*
X0129500Y0096300D01*
X0109500Y0096300D02*
X0109500Y0106300D01*
X0122000Y0118800D01*
X0122000Y0146300D01*
X0127000Y0151300D01*
D14*
X0017100Y0158700D02*
X0017100Y0028900D01*
X0146900Y0028900D01*
X0146900Y0091675D01*
X0142213Y0086987D01*
X0141313Y0086087D01*
X0140137Y0085600D01*
X0106363Y0085600D01*
X0105187Y0086087D01*
X0100575Y0090700D01*
X0097180Y0090700D01*
X0094076Y0093805D01*
X0091571Y0091300D01*
X0089500Y0091300D01*
X0089500Y0096300D01*
X0089500Y0096300D01*
X0089500Y0101300D01*
X0091571Y0101300D01*
X0094076Y0098795D01*
X0097180Y0101900D01*
X0101820Y0101900D01*
X0104500Y0099220D01*
X0106300Y0101020D01*
X0106300Y0106937D01*
X0106787Y0108113D01*
X0107687Y0109013D01*
X0118800Y0120125D01*
X0118800Y0136300D01*
X0117000Y0136300D01*
X0117000Y0141300D01*
X0117000Y0141300D01*
X0117000Y0146300D01*
X0118800Y0146300D01*
X0118800Y0146300D01*
X0117000Y0146300D01*
X0117000Y0151300D01*
X0117000Y0151300D01*
X0117000Y0156300D01*
X0119071Y0156300D01*
X0121576Y0153795D01*
X0124680Y0156900D01*
X0129320Y0156900D01*
X0132000Y0154220D01*
X0134680Y0156900D01*
X0139320Y0156900D01*
X0142600Y0153620D01*
X0142600Y0150225D01*
X0146313Y0146513D01*
X0146313Y0146513D01*
X0146900Y0145925D01*
X0146900Y0158700D01*
X0017100Y0158700D01*
X0017100Y0158202D02*
X0146900Y0158202D01*
X0146900Y0156203D02*
X0140016Y0156203D01*
X0142015Y0154205D02*
X0146900Y0154205D01*
X0146900Y0152206D02*
X0142600Y0152206D01*
X0142618Y0150208D02*
X0146900Y0150208D01*
X0146900Y0148209D02*
X0144616Y0148209D01*
X0146615Y0146211D02*
X0146900Y0146211D01*
X0133984Y0156203D02*
X0130016Y0156203D01*
X0123984Y0156203D02*
X0119168Y0156203D01*
X0117000Y0156203D02*
X0117000Y0156203D01*
X0117000Y0156300D02*
X0114929Y0156300D01*
X0112424Y0153795D01*
X0109320Y0156900D01*
X0104680Y0156900D01*
X0102000Y0154220D01*
X0099320Y0156900D01*
X0094680Y0156900D01*
X0091400Y0153620D01*
X0091400Y0148980D01*
X0094080Y0146300D01*
X0091400Y0143620D01*
X0091400Y0138980D01*
X0094680Y0135700D01*
X0099320Y0135700D01*
X0102000Y0138380D01*
X0104680Y0135700D01*
X0109320Y0135700D01*
X0112424Y0138805D01*
X0114929Y0136300D01*
X0117000Y0136300D01*
X0117000Y0141300D01*
X0117000Y0141300D01*
X0117000Y0146300D01*
X0114929Y0146300D01*
X0112424Y0143795D01*
X0109920Y0146300D01*
X0112424Y0148805D01*
X0114929Y0146300D01*
X0117000Y0146300D01*
X0117000Y0151300D01*
X0117000Y0156300D01*
X0117000Y0154205D02*
X0117000Y0154205D01*
X0117000Y0152206D02*
X0117000Y0152206D01*
X0117000Y0151300D02*
X0117000Y0151300D01*
X0117000Y0150208D02*
X0117000Y0150208D01*
X0117000Y0148209D02*
X0117000Y0148209D01*
X0117000Y0146211D02*
X0117000Y0146211D01*
X0117000Y0144212D02*
X0117000Y0144212D01*
X0117000Y0142214D02*
X0117000Y0142214D01*
X0117000Y0140215D02*
X0117000Y0140215D01*
X0117000Y0138217D02*
X0117000Y0138217D01*
X0118800Y0136218D02*
X0109838Y0136218D01*
X0111836Y0138217D02*
X0113012Y0138217D01*
X0112841Y0144212D02*
X0112007Y0144212D01*
X0110009Y0146211D02*
X0114840Y0146211D01*
X0113020Y0148209D02*
X0111829Y0148209D01*
X0112015Y0154205D02*
X0112834Y0154205D01*
X0114832Y0156203D02*
X0110016Y0156203D01*
X0103984Y0156203D02*
X0100016Y0156203D01*
X0093984Y0156203D02*
X0070016Y0156203D01*
X0069320Y0156900D02*
X0064680Y0156900D01*
X0061576Y0153795D01*
X0059071Y0156300D01*
X0057000Y0156300D01*
X0057000Y0151300D01*
X0057000Y0151300D01*
X0057000Y0156300D01*
X0054929Y0156300D01*
X0052424Y0153795D01*
X0049320Y0156900D01*
X0044680Y0156900D01*
X0042000Y0154220D01*
X0039320Y0156900D01*
X0034680Y0156900D01*
X0032000Y0154220D01*
X0029320Y0156900D01*
X0024680Y0156900D01*
X0021400Y0153620D01*
X0021400Y0148980D01*
X0024080Y0146300D01*
X0021400Y0143620D01*
X0021400Y0138980D01*
X0024680Y0135700D01*
X0029320Y0135700D01*
X0032000Y0138380D01*
X0034680Y0135700D01*
X0039320Y0135700D01*
X0042000Y0138380D01*
X0044680Y0135700D01*
X0049320Y0135700D01*
X0052424Y0138805D01*
X0054929Y0136300D01*
X0057000Y0136300D01*
X0059071Y0136300D01*
X0061576Y0138805D01*
X0064680Y0135700D01*
X0069320Y0135700D01*
X0072600Y0138980D01*
X0072600Y0143620D01*
X0069920Y0146300D01*
X0072600Y0148980D01*
X0072600Y0153620D01*
X0069320Y0156900D01*
X0072015Y0154205D02*
X0091985Y0154205D01*
X0091400Y0152206D02*
X0072600Y0152206D01*
X0072600Y0150208D02*
X0091400Y0150208D01*
X0092171Y0148209D02*
X0071829Y0148209D01*
X0070009Y0146211D02*
X0093991Y0146211D01*
X0091993Y0144212D02*
X0072007Y0144212D01*
X0072600Y0142214D02*
X0091400Y0142214D01*
X0091400Y0140215D02*
X0072600Y0140215D01*
X0071836Y0138217D02*
X0092164Y0138217D01*
X0094162Y0136218D02*
X0069838Y0136218D01*
X0064162Y0136218D02*
X0049838Y0136218D01*
X0051836Y0138217D02*
X0053012Y0138217D01*
X0057000Y0138217D02*
X0057000Y0138217D01*
X0057000Y0136300D02*
X0057000Y0141300D01*
X0057000Y0141300D01*
X0057000Y0146300D01*
X0059071Y0146300D01*
X0061576Y0143795D01*
X0064080Y0146300D01*
X0061576Y0148805D01*
X0059071Y0146300D01*
X0057000Y0146300D01*
X0057000Y0151300D01*
X0057000Y0151300D01*
X0057000Y0146300D01*
X0054929Y0146300D01*
X0052424Y0143795D01*
X0049920Y0146300D01*
X0052424Y0148805D01*
X0054929Y0146300D01*
X0057000Y0146300D01*
X0057000Y0141300D01*
X0057000Y0136300D01*
X0057000Y0140215D02*
X0057000Y0140215D01*
X0057000Y0141300D02*
X0057000Y0141300D01*
X0057000Y0142214D02*
X0057000Y0142214D01*
X0057000Y0144212D02*
X0057000Y0144212D01*
X0057000Y0146211D02*
X0057000Y0146211D01*
X0054840Y0146211D02*
X0050009Y0146211D01*
X0052007Y0144212D02*
X0052841Y0144212D01*
X0053020Y0148209D02*
X0051829Y0148209D01*
X0057000Y0148209D02*
X0057000Y0148209D01*
X0057000Y0150208D02*
X0057000Y0150208D01*
X0057000Y0152206D02*
X0057000Y0152206D01*
X0057000Y0154205D02*
X0057000Y0154205D01*
X0057000Y0156203D02*
X0057000Y0156203D01*
X0054832Y0156203D02*
X0050016Y0156203D01*
X0052015Y0154205D02*
X0052834Y0154205D01*
X0059168Y0156203D02*
X0063984Y0156203D01*
X0061985Y0154205D02*
X0061166Y0154205D01*
X0060980Y0148209D02*
X0062171Y0148209D01*
X0063991Y0146211D02*
X0059160Y0146211D01*
X0061159Y0144212D02*
X0061993Y0144212D01*
X0062164Y0138217D02*
X0060988Y0138217D01*
X0059237Y0119200D02*
X0054763Y0119200D01*
X0052000Y0116437D01*
X0049237Y0119200D01*
X0044763Y0119200D01*
X0042000Y0116437D01*
X0039237Y0119200D01*
X0034763Y0119200D01*
X0031600Y0116037D01*
X0031600Y0111563D01*
X0034363Y0108800D01*
X0031600Y0106037D01*
X0031600Y0101563D01*
X0034763Y0098400D01*
X0038800Y0098400D01*
X0038800Y0095663D01*
X0039287Y0094487D01*
X0040187Y0093587D01*
X0048800Y0084975D01*
X0048800Y0071100D01*
X0047000Y0071100D01*
X0047000Y0066300D01*
X0047000Y0066300D01*
X0047000Y0071100D01*
X0045012Y0071100D01*
X0042400Y0068488D01*
X0042400Y0068537D01*
X0039237Y0071700D01*
X0034763Y0071700D01*
X0031600Y0068537D01*
X0031600Y0064063D01*
X0034363Y0061300D01*
X0031600Y0058537D01*
X0031600Y0054063D01*
X0034763Y0050900D01*
X0039237Y0050900D01*
X0042000Y0053663D01*
X0044763Y0050900D01*
X0049237Y0050900D01*
X0049806Y0051469D01*
X0050187Y0051087D01*
X0052687Y0048587D01*
X0053863Y0048100D01*
X0062637Y0048100D01*
X0063813Y0048587D01*
X0064713Y0049487D01*
X0066125Y0050900D01*
X0069237Y0050900D01*
X0069806Y0051469D01*
X0070187Y0051087D01*
X0074287Y0046987D01*
X0075187Y0046087D01*
X0076363Y0045600D01*
X0100137Y0045600D01*
X0101313Y0046087D01*
X0102213Y0046987D01*
X0102213Y0046987D01*
X0106125Y0050900D01*
X0109237Y0050900D01*
X0112000Y0053663D01*
X0114763Y0050900D01*
X0119237Y0050900D01*
X0122000Y0053663D01*
X0124763Y0050900D01*
X0129237Y0050900D01*
X0132400Y0054063D01*
X0132400Y0058537D01*
X0129237Y0061700D01*
X0129188Y0061700D01*
X0131800Y0064312D01*
X0131800Y0066300D01*
X0131800Y0068288D01*
X0128988Y0071100D01*
X0127000Y0071100D01*
X0127000Y0066300D01*
X0131800Y0066300D01*
X0127000Y0066300D01*
X0127000Y0066300D01*
X0127000Y0066300D01*
X0127000Y0066300D01*
X0122200Y0066300D01*
X0122200Y0068288D01*
X0125012Y0071100D01*
X0127000Y0071100D01*
X0127000Y0066300D01*
X0122200Y0066300D01*
X0122200Y0064312D01*
X0124812Y0061700D01*
X0124763Y0061700D01*
X0122000Y0058937D01*
X0119237Y0061700D01*
X0119188Y0061700D01*
X0121800Y0064312D01*
X0121800Y0066300D01*
X0121800Y0068288D01*
X0118988Y0071100D01*
X0117000Y0071100D01*
X0117000Y0066300D01*
X0117000Y0066300D01*
X0121800Y0066300D01*
X0117000Y0066300D01*
X0117000Y0066300D01*
X0117000Y0066300D01*
X0112200Y0066300D01*
X0112200Y0068288D01*
X0115012Y0071100D01*
X0117000Y0071100D01*
X0117000Y0066300D01*
X0112200Y0066300D01*
X0112200Y0064312D01*
X0114812Y0061700D01*
X0114763Y0061700D01*
X0112000Y0058937D01*
X0109237Y0061700D01*
X0109188Y0061700D01*
X0111800Y0064312D01*
X0111800Y0066300D01*
X0111800Y0068288D01*
X0108988Y0071100D01*
X0107000Y0071100D01*
X0107000Y0066300D01*
X0107000Y0066300D01*
X0111800Y0066300D01*
X0107000Y0066300D01*
X0107000Y0066300D01*
X0107000Y0066300D01*
X0102200Y0066300D01*
X0102200Y0068288D01*
X0105012Y0071100D01*
X0107000Y0071100D01*
X0107000Y0066300D01*
X0102200Y0066300D01*
X0102200Y0064312D01*
X0104812Y0061700D01*
X0104763Y0061700D01*
X0102000Y0058937D01*
X0099237Y0061700D01*
X0099188Y0061700D01*
X0101800Y0064312D01*
X0101800Y0066300D01*
X0101800Y0068288D01*
X0098988Y0071100D01*
X0097000Y0071100D01*
X0097000Y0066300D01*
X0097000Y0066300D01*
X0101800Y0066300D01*
X0097000Y0066300D01*
X0097000Y0066300D01*
X0097000Y0071100D01*
X0095200Y0071100D01*
X0095200Y0081937D01*
X0094713Y0083113D01*
X0093813Y0084013D01*
X0062400Y0115425D01*
X0062400Y0116037D01*
X0059237Y0119200D01*
X0060205Y0118232D02*
X0116906Y0118232D01*
X0118800Y0120230D02*
X0017100Y0120230D01*
X0017100Y0118232D02*
X0033795Y0118232D01*
X0031796Y0116233D02*
X0017100Y0116233D01*
X0017100Y0114234D02*
X0031600Y0114234D01*
X0031600Y0112236D02*
X0017100Y0112236D01*
X0017100Y0110237D02*
X0032926Y0110237D01*
X0033802Y0108239D02*
X0017100Y0108239D01*
X0017100Y0106240D02*
X0031804Y0106240D01*
X0031600Y0104242D02*
X0017100Y0104242D01*
X0017100Y0102243D02*
X0031600Y0102243D01*
X0032918Y0100245D02*
X0017100Y0100245D01*
X0017100Y0098246D02*
X0038800Y0098246D01*
X0038800Y0096248D02*
X0017100Y0096248D01*
X0017100Y0094249D02*
X0039525Y0094249D01*
X0041524Y0092251D02*
X0017100Y0092251D01*
X0017100Y0090252D02*
X0043522Y0090252D01*
X0045521Y0088254D02*
X0017100Y0088254D01*
X0017100Y0086255D02*
X0047519Y0086255D01*
X0048800Y0084257D02*
X0017100Y0084257D01*
X0017100Y0082258D02*
X0048800Y0082258D01*
X0048800Y0080260D02*
X0017100Y0080260D01*
X0017100Y0078261D02*
X0048800Y0078261D01*
X0048800Y0076263D02*
X0017100Y0076263D01*
X0017100Y0074264D02*
X0048800Y0074264D01*
X0048800Y0072266D02*
X0017100Y0072266D01*
X0017100Y0070267D02*
X0033331Y0070267D01*
X0031600Y0068269D02*
X0017100Y0068269D01*
X0017100Y0066270D02*
X0031600Y0066270D01*
X0031600Y0064272D02*
X0017100Y0064272D01*
X0017100Y0062273D02*
X0033390Y0062273D01*
X0033338Y0060275D02*
X0017100Y0060275D01*
X0017100Y0058276D02*
X0031600Y0058276D01*
X0031600Y0056278D02*
X0017100Y0056278D01*
X0017100Y0054279D02*
X0031600Y0054279D01*
X0033383Y0052281D02*
X0017100Y0052281D01*
X0017100Y0050282D02*
X0050992Y0050282D01*
X0053420Y0048284D02*
X0017100Y0048284D01*
X0017100Y0046285D02*
X0074989Y0046285D01*
X0074287Y0046987D02*
X0074287Y0046987D01*
X0072991Y0048284D02*
X0063080Y0048284D01*
X0065508Y0050282D02*
X0070992Y0050282D01*
X0069154Y0041500D02*
X0064846Y0041500D01*
X0061800Y0038454D01*
X0061800Y0034146D01*
X0064846Y0031100D01*
X0069154Y0031100D01*
X0072000Y0033946D01*
X0074846Y0031100D01*
X0079154Y0031100D01*
X0082000Y0033946D01*
X0084846Y0031100D01*
X0089154Y0031100D01*
X0092200Y0034146D01*
X0092200Y0038454D01*
X0089154Y0041500D01*
X0084846Y0041500D01*
X0082000Y0038654D01*
X0079154Y0041500D01*
X0074846Y0041500D01*
X0072000Y0038654D01*
X0069154Y0041500D01*
X0070364Y0040290D02*
X0073636Y0040290D01*
X0073651Y0032296D02*
X0070349Y0032296D01*
X0063651Y0032296D02*
X0017100Y0032296D01*
X0017100Y0034294D02*
X0061800Y0034294D01*
X0061800Y0036293D02*
X0017100Y0036293D01*
X0017100Y0038291D02*
X0061800Y0038291D01*
X0063636Y0040290D02*
X0017100Y0040290D01*
X0017100Y0042288D02*
X0146900Y0042288D01*
X0146900Y0040290D02*
X0099516Y0040290D01*
X0098905Y0040900D02*
X0097000Y0040900D01*
X0097000Y0036300D01*
X0097000Y0036300D01*
X0101600Y0036300D01*
X0101600Y0038205D01*
X0098905Y0040900D01*
X0097000Y0040900D02*
X0095095Y0040900D01*
X0092400Y0038205D01*
X0092400Y0036300D01*
X0097000Y0036300D01*
X0097000Y0036300D01*
X0097000Y0036300D01*
X0097000Y0040900D01*
X0097000Y0040290D02*
X0097000Y0040290D01*
X0097000Y0038291D02*
X0097000Y0038291D01*
X0097000Y0036300D02*
X0092400Y0036300D01*
X0092400Y0034395D01*
X0095095Y0031700D01*
X0097000Y0031700D01*
X0098905Y0031700D01*
X0101600Y0034395D01*
X0101600Y0036300D01*
X0097000Y0036300D01*
X0097000Y0031700D01*
X0097000Y0036300D01*
X0097000Y0036300D01*
X0097000Y0036293D02*
X0097000Y0036293D01*
X0097000Y0034294D02*
X0097000Y0034294D01*
X0097000Y0032296D02*
X0097000Y0032296D01*
X0099501Y0032296D02*
X0146900Y0032296D01*
X0146900Y0034294D02*
X0101499Y0034294D01*
X0101600Y0036293D02*
X0146900Y0036293D01*
X0146900Y0038291D02*
X0101514Y0038291D01*
X0094484Y0040290D02*
X0090364Y0040290D01*
X0092200Y0038291D02*
X0092486Y0038291D01*
X0092400Y0036293D02*
X0092200Y0036293D01*
X0092200Y0034294D02*
X0092501Y0034294D01*
X0094499Y0032296D02*
X0090349Y0032296D01*
X0083651Y0032296D02*
X0080349Y0032296D01*
X0080364Y0040290D02*
X0083636Y0040290D01*
X0101511Y0046285D02*
X0146900Y0046285D01*
X0146900Y0044287D02*
X0017100Y0044287D01*
X0017100Y0030297D02*
X0146900Y0030297D01*
X0146900Y0048284D02*
X0103509Y0048284D01*
X0105508Y0050282D02*
X0146900Y0050282D01*
X0146900Y0052281D02*
X0130617Y0052281D01*
X0132400Y0054279D02*
X0146900Y0054279D01*
X0146900Y0056278D02*
X0132400Y0056278D01*
X0132400Y0058276D02*
X0146900Y0058276D01*
X0146900Y0060275D02*
X0130662Y0060275D01*
X0129761Y0062273D02*
X0146900Y0062273D01*
X0146900Y0064272D02*
X0131760Y0064272D01*
X0131800Y0066270D02*
X0146900Y0066270D01*
X0146900Y0068269D02*
X0131800Y0068269D01*
X0129821Y0070267D02*
X0146900Y0070267D01*
X0146900Y0072266D02*
X0095200Y0072266D01*
X0095200Y0074264D02*
X0146900Y0074264D01*
X0146900Y0076263D02*
X0095200Y0076263D01*
X0095200Y0078261D02*
X0146900Y0078261D01*
X0146900Y0080260D02*
X0095200Y0080260D01*
X0095067Y0082258D02*
X0146900Y0082258D01*
X0146900Y0084257D02*
X0093569Y0084257D01*
X0091570Y0086255D02*
X0105019Y0086255D01*
X0103021Y0088254D02*
X0089572Y0088254D01*
X0087573Y0090252D02*
X0101022Y0090252D01*
X0095630Y0092251D02*
X0092522Y0092251D01*
X0089500Y0092251D02*
X0089500Y0092251D01*
X0089500Y0091300D02*
X0087429Y0091300D01*
X0084500Y0094229D01*
X0084500Y0096300D01*
X0089500Y0096300D01*
X0089500Y0096300D01*
X0089500Y0096300D01*
X0089500Y0101300D01*
X0087429Y0101300D01*
X0084500Y0098371D01*
X0084500Y0096300D01*
X0089500Y0096300D01*
X0089500Y0091300D01*
X0089500Y0094249D02*
X0089500Y0094249D01*
X0089500Y0096248D02*
X0089500Y0096248D01*
X0089500Y0098246D02*
X0089500Y0098246D01*
X0089500Y0100245D02*
X0089500Y0100245D01*
X0092626Y0100245D02*
X0095525Y0100245D01*
X0103475Y0100245D02*
X0105525Y0100245D01*
X0106300Y0102243D02*
X0075582Y0102243D01*
X0077581Y0100245D02*
X0086374Y0100245D01*
X0084500Y0098246D02*
X0079579Y0098246D01*
X0081578Y0096248D02*
X0084500Y0096248D01*
X0084500Y0094249D02*
X0083576Y0094249D01*
X0085575Y0092251D02*
X0086478Y0092251D01*
X0078800Y0084975D02*
X0078800Y0071100D01*
X0077000Y0071100D01*
X0077000Y0066300D01*
X0077000Y0066300D01*
X0077000Y0066300D01*
X0072200Y0066300D01*
X0072200Y0068288D01*
X0075012Y0071100D01*
X0077000Y0071100D01*
X0077000Y0066300D01*
X0072200Y0066300D01*
X0072200Y0064312D01*
X0074812Y0061700D01*
X0074763Y0061700D01*
X0074194Y0061131D01*
X0071407Y0063919D01*
X0071800Y0064312D01*
X0071800Y0066300D01*
X0071800Y0068288D01*
X0068988Y0071100D01*
X0067000Y0071100D01*
X0067000Y0066300D01*
X0067000Y0066300D01*
X0071800Y0066300D01*
X0067000Y0066300D01*
X0067000Y0066300D01*
X0067000Y0071100D01*
X0065200Y0071100D01*
X0065200Y0081937D01*
X0064713Y0083113D01*
X0050200Y0097625D01*
X0050200Y0099363D01*
X0052400Y0101563D01*
X0052400Y0101612D01*
X0055012Y0099000D01*
X0057000Y0099000D01*
X0058988Y0099000D01*
X0061800Y0101812D01*
X0061800Y0101975D01*
X0078800Y0084975D01*
X0078800Y0084257D02*
X0063569Y0084257D01*
X0065067Y0082258D02*
X0078800Y0082258D01*
X0078800Y0080260D02*
X0065200Y0080260D01*
X0065200Y0078261D02*
X0078800Y0078261D01*
X0078800Y0076263D02*
X0065200Y0076263D01*
X0065200Y0074264D02*
X0078800Y0074264D01*
X0078800Y0072266D02*
X0065200Y0072266D01*
X0067000Y0070267D02*
X0067000Y0070267D01*
X0067000Y0068269D02*
X0067000Y0068269D01*
X0069821Y0070267D02*
X0074179Y0070267D01*
X0072200Y0068269D02*
X0071800Y0068269D01*
X0071800Y0066270D02*
X0072200Y0066270D01*
X0072240Y0064272D02*
X0071760Y0064272D01*
X0073052Y0062273D02*
X0074239Y0062273D01*
X0077000Y0068269D02*
X0077000Y0068269D01*
X0077000Y0070267D02*
X0077000Y0070267D01*
X0085200Y0071100D02*
X0085200Y0083575D01*
X0088800Y0079975D01*
X0088800Y0071100D01*
X0087000Y0071100D01*
X0087000Y0066300D01*
X0087000Y0066300D01*
X0087000Y0071100D01*
X0085200Y0071100D01*
X0085200Y0072266D02*
X0088800Y0072266D01*
X0088800Y0074264D02*
X0085200Y0074264D01*
X0085200Y0076263D02*
X0088800Y0076263D01*
X0088800Y0078261D02*
X0085200Y0078261D01*
X0085200Y0080260D02*
X0088515Y0080260D01*
X0086516Y0082258D02*
X0085200Y0082258D01*
X0077519Y0086255D02*
X0061570Y0086255D01*
X0059572Y0088254D02*
X0075521Y0088254D01*
X0073522Y0090252D02*
X0057573Y0090252D01*
X0055575Y0092251D02*
X0071524Y0092251D01*
X0069525Y0094249D02*
X0053576Y0094249D01*
X0051578Y0096248D02*
X0067527Y0096248D01*
X0065528Y0098246D02*
X0050200Y0098246D01*
X0051082Y0100245D02*
X0053767Y0100245D01*
X0057000Y0100245D02*
X0057000Y0100245D01*
X0057000Y0099000D02*
X0057000Y0103800D01*
X0057000Y0103800D01*
X0057000Y0099000D01*
X0057000Y0102243D02*
X0057000Y0102243D01*
X0060233Y0100245D02*
X0063530Y0100245D01*
X0069587Y0108239D02*
X0106913Y0108239D01*
X0106300Y0106240D02*
X0071585Y0106240D01*
X0073584Y0104242D02*
X0106300Y0104242D01*
X0108912Y0110237D02*
X0067588Y0110237D01*
X0065589Y0112236D02*
X0110911Y0112236D01*
X0112909Y0114234D02*
X0063591Y0114234D01*
X0062204Y0116233D02*
X0114908Y0116233D01*
X0118800Y0122229D02*
X0017100Y0122229D01*
X0017100Y0124227D02*
X0118800Y0124227D01*
X0118800Y0126226D02*
X0017100Y0126226D01*
X0017100Y0128224D02*
X0118800Y0128224D01*
X0118800Y0130223D02*
X0017100Y0130223D01*
X0017100Y0132221D02*
X0118800Y0132221D01*
X0118800Y0134220D02*
X0017100Y0134220D01*
X0017100Y0136218D02*
X0024162Y0136218D01*
X0022164Y0138217D02*
X0017100Y0138217D01*
X0017100Y0140215D02*
X0021400Y0140215D01*
X0021400Y0142214D02*
X0017100Y0142214D01*
X0017100Y0144212D02*
X0021993Y0144212D01*
X0023991Y0146211D02*
X0017100Y0146211D01*
X0017100Y0148209D02*
X0022171Y0148209D01*
X0021400Y0150208D02*
X0017100Y0150208D01*
X0017100Y0152206D02*
X0021400Y0152206D01*
X0021985Y0154205D02*
X0017100Y0154205D01*
X0017100Y0156203D02*
X0023984Y0156203D01*
X0030016Y0156203D02*
X0033984Y0156203D01*
X0040016Y0156203D02*
X0043984Y0156203D01*
X0042164Y0138217D02*
X0041836Y0138217D01*
X0039838Y0136218D02*
X0044162Y0136218D01*
X0034162Y0136218D02*
X0029838Y0136218D01*
X0031836Y0138217D02*
X0032164Y0138217D01*
X0040205Y0118232D02*
X0043795Y0118232D01*
X0050205Y0118232D02*
X0053795Y0118232D01*
X0055200Y0083575D02*
X0058800Y0079975D01*
X0058800Y0071100D01*
X0057000Y0071100D01*
X0057000Y0066300D01*
X0057000Y0066300D01*
X0057000Y0071100D01*
X0055200Y0071100D01*
X0055200Y0083575D01*
X0055200Y0082258D02*
X0056516Y0082258D01*
X0055200Y0080260D02*
X0058515Y0080260D01*
X0058800Y0078261D02*
X0055200Y0078261D01*
X0055200Y0076263D02*
X0058800Y0076263D01*
X0058800Y0074264D02*
X0055200Y0074264D01*
X0055200Y0072266D02*
X0058800Y0072266D01*
X0057000Y0070267D02*
X0057000Y0070267D01*
X0057000Y0068269D02*
X0057000Y0068269D01*
X0047000Y0068269D02*
X0047000Y0068269D01*
X0047000Y0070267D02*
X0047000Y0070267D01*
X0044179Y0070267D02*
X0040669Y0070267D01*
X0040617Y0052281D02*
X0043383Y0052281D01*
X0087000Y0068269D02*
X0087000Y0068269D01*
X0087000Y0070267D02*
X0087000Y0070267D01*
X0097000Y0070267D02*
X0097000Y0070267D01*
X0097000Y0068269D02*
X0097000Y0068269D01*
X0099821Y0070267D02*
X0104179Y0070267D01*
X0102200Y0068269D02*
X0101800Y0068269D01*
X0101800Y0066270D02*
X0102200Y0066270D01*
X0102240Y0064272D02*
X0101760Y0064272D01*
X0099761Y0062273D02*
X0104239Y0062273D01*
X0103338Y0060275D02*
X0100662Y0060275D01*
X0107000Y0068269D02*
X0107000Y0068269D01*
X0107000Y0070267D02*
X0107000Y0070267D01*
X0109821Y0070267D02*
X0114179Y0070267D01*
X0112200Y0068269D02*
X0111800Y0068269D01*
X0111800Y0066270D02*
X0112200Y0066270D01*
X0112240Y0064272D02*
X0111760Y0064272D01*
X0109761Y0062273D02*
X0114239Y0062273D01*
X0113338Y0060275D02*
X0110662Y0060275D01*
X0117000Y0068269D02*
X0117000Y0068269D01*
X0117000Y0070267D02*
X0117000Y0070267D01*
X0119821Y0070267D02*
X0124179Y0070267D01*
X0122200Y0068269D02*
X0121800Y0068269D01*
X0121800Y0066270D02*
X0122200Y0066270D01*
X0122240Y0064272D02*
X0121760Y0064272D01*
X0119761Y0062273D02*
X0124239Y0062273D01*
X0123338Y0060275D02*
X0120662Y0060275D01*
X0127000Y0068269D02*
X0127000Y0068269D01*
X0127000Y0070267D02*
X0127000Y0070267D01*
X0141481Y0086255D02*
X0146900Y0086255D01*
X0146900Y0088254D02*
X0143479Y0088254D01*
X0145478Y0090252D02*
X0146900Y0090252D01*
X0123383Y0052281D02*
X0120617Y0052281D01*
X0113383Y0052281D02*
X0110617Y0052281D01*
X0104162Y0136218D02*
X0099838Y0136218D01*
X0101836Y0138217D02*
X0102164Y0138217D01*
X0121166Y0154205D02*
X0121985Y0154205D01*
M02*
