%
M48
M72
T01C0.0320
T02C0.0360
T03C0.0400
%
T01
X6700Y3630
X7700Y3630
X8700Y3630
X9700Y3630
T02
X3700Y5630
X3700Y6630
X4700Y6630
X4700Y5630
X5700Y5630
X5700Y6630
X6700Y6630
X6700Y5630
X7700Y5630
X7700Y6630
X8700Y6630
X8700Y5630
X9700Y5630
X9700Y6630
X10700Y6630
X10700Y5630
X11700Y5630
X11700Y6630
X12700Y6630
X12700Y5630
X5700Y10380
X5700Y11380
X4700Y11380
X4700Y10380
X3700Y10380
X3700Y11380
T03
X3700Y14130
X3700Y15130
X2700Y15130
X2700Y14130
X4700Y14130
X4700Y15130
X5700Y15130
X5700Y14130
X6700Y14130
X6700Y15130
X9700Y15130
X9700Y14130
X10700Y14130
X10700Y15130
X11700Y15130
X11700Y14130
X12700Y14130
X12700Y15130
X13700Y15130
X13700Y14130
X13950Y9630
X12950Y9630
X11950Y9630
X10950Y9630
X9950Y9630
X8950Y9630
M30
