G75*
%MOIN*%
%OFA0B0*%
%FSLAX25Y25*%
%IPPOS*%
%LPD*%
%AMOC8*
5,1,8,0,0,1.08239X$1,22.5*
%
%ADD10C,0.00000*%
%ADD11C,0.00500*%
%ADD12C,0.00600*%
%ADD13C,0.00200*%
%ADD14R,0.02600X0.03200*%
D10*
X0014500Y0012000D02*
X0149500Y0012000D01*
X0149500Y0147000D01*
X0014500Y0147000D01*
X0014500Y0012000D01*
D11*
X0027250Y0024750D02*
X0030253Y0024750D01*
X0028751Y0024750D02*
X0028751Y0029254D01*
X0027250Y0027753D01*
X0027250Y0034750D02*
X0030253Y0037753D01*
X0030253Y0038503D01*
X0029502Y0039254D01*
X0028001Y0039254D01*
X0027250Y0038503D01*
X0027250Y0034750D02*
X0030253Y0034750D01*
X0029106Y0052250D02*
X0029106Y0056754D01*
X0026854Y0054502D01*
X0029856Y0054502D01*
X0025253Y0056754D02*
X0023751Y0056754D01*
X0024502Y0056754D02*
X0024502Y0053001D01*
X0023751Y0052250D01*
X0023001Y0052250D01*
X0022250Y0053001D01*
X0042250Y0053001D02*
X0043001Y0052250D01*
X0043751Y0052250D01*
X0044502Y0053001D01*
X0044502Y0056754D01*
X0043751Y0056754D02*
X0045253Y0056754D01*
X0046854Y0054502D02*
X0049856Y0054502D01*
X0051458Y0056754D02*
X0051458Y0052250D01*
X0054460Y0052250D01*
X0056062Y0052250D02*
X0057563Y0052250D01*
X0056812Y0052250D02*
X0056812Y0056754D01*
X0056062Y0056754D02*
X0057563Y0056754D01*
X0059131Y0056754D02*
X0062134Y0052250D01*
X0062134Y0056754D01*
X0063735Y0056754D02*
X0063735Y0052250D01*
X0063735Y0053751D02*
X0066738Y0056754D01*
X0064486Y0054502D02*
X0066738Y0052250D01*
X0059131Y0052250D02*
X0059131Y0056754D01*
X0048753Y0067001D02*
X0048753Y0067751D01*
X0048002Y0068502D01*
X0045750Y0068502D01*
X0045750Y0067001D01*
X0046501Y0066250D01*
X0048002Y0066250D01*
X0048753Y0067001D01*
X0047251Y0070003D02*
X0045750Y0068502D01*
X0047251Y0070003D02*
X0048753Y0070754D01*
X0030253Y0074750D02*
X0027250Y0074750D01*
X0028751Y0074750D02*
X0028751Y0079254D01*
X0027250Y0077753D01*
X0027250Y0084750D02*
X0030253Y0087753D01*
X0030253Y0088503D01*
X0029502Y0089254D01*
X0028001Y0089254D01*
X0027250Y0088503D01*
X0027250Y0084750D02*
X0030253Y0084750D01*
X0029106Y0102250D02*
X0027605Y0102250D01*
X0026854Y0103001D01*
X0028355Y0104502D02*
X0029106Y0104502D01*
X0029856Y0103751D01*
X0029856Y0103001D01*
X0029106Y0102250D01*
X0029106Y0104502D02*
X0029856Y0105253D01*
X0029856Y0106003D01*
X0029106Y0106754D01*
X0027605Y0106754D01*
X0026854Y0106003D01*
X0025253Y0106754D02*
X0023751Y0106754D01*
X0024502Y0106754D02*
X0024502Y0103001D01*
X0023751Y0102250D01*
X0023001Y0102250D01*
X0022250Y0103001D01*
X0023001Y0117250D02*
X0023751Y0117250D01*
X0024502Y0118001D01*
X0024502Y0121754D01*
X0023751Y0121754D02*
X0025253Y0121754D01*
X0026854Y0120253D02*
X0028355Y0121754D01*
X0028355Y0117250D01*
X0026854Y0117250D02*
X0029856Y0117250D01*
X0023001Y0117250D02*
X0022250Y0118001D01*
X0042250Y0118001D02*
X0043001Y0117250D01*
X0044502Y0117250D01*
X0045253Y0118001D01*
X0045253Y0118751D01*
X0044502Y0119502D01*
X0043001Y0119502D01*
X0042250Y0120253D01*
X0042250Y0121003D01*
X0043001Y0121754D01*
X0044502Y0121754D01*
X0045253Y0121003D01*
X0046854Y0121754D02*
X0049856Y0121754D01*
X0048355Y0121754D02*
X0048355Y0117250D01*
X0051458Y0119502D02*
X0054460Y0119502D01*
X0056062Y0121754D02*
X0056062Y0117250D01*
X0059064Y0117250D01*
X0060666Y0117250D02*
X0062167Y0117250D01*
X0061416Y0117250D02*
X0061416Y0121754D01*
X0060666Y0121754D02*
X0062167Y0121754D01*
X0063735Y0121754D02*
X0066738Y0117250D01*
X0066738Y0121754D01*
X0068339Y0121754D02*
X0068339Y0117250D01*
X0068339Y0118751D02*
X0071341Y0121754D01*
X0069090Y0119502D02*
X0071341Y0117250D01*
X0063735Y0117250D02*
X0063735Y0121754D01*
X0062918Y0106754D02*
X0061416Y0106754D01*
X0060666Y0106003D01*
X0060666Y0103001D01*
X0061416Y0102250D01*
X0062918Y0102250D01*
X0063668Y0103001D01*
X0065270Y0103001D02*
X0066020Y0102250D01*
X0067522Y0102250D01*
X0068272Y0103001D01*
X0068272Y0106003D01*
X0067522Y0106754D01*
X0066020Y0106754D01*
X0065270Y0106003D01*
X0065270Y0103001D01*
X0063668Y0106003D02*
X0062918Y0106754D01*
X0059064Y0104502D02*
X0056062Y0104502D01*
X0054460Y0104502D02*
X0054460Y0103001D01*
X0053710Y0102250D01*
X0052208Y0102250D01*
X0051458Y0103001D01*
X0051458Y0106003D01*
X0052208Y0106754D01*
X0053710Y0106754D01*
X0054460Y0106003D01*
X0054460Y0104502D02*
X0052959Y0104502D01*
X0049856Y0104502D02*
X0046854Y0104502D01*
X0046854Y0105253D02*
X0048355Y0106754D01*
X0049856Y0105253D01*
X0049856Y0102250D01*
X0046854Y0102250D02*
X0046854Y0105253D01*
X0045253Y0106754D02*
X0042250Y0106754D01*
X0043751Y0106754D02*
X0043751Y0102250D01*
X0069874Y0102250D02*
X0069874Y0106754D01*
X0072876Y0102250D01*
X0072876Y0106754D01*
X0074477Y0106754D02*
X0077480Y0102250D01*
X0077480Y0106754D01*
X0074477Y0106754D02*
X0074477Y0102250D01*
X0087997Y0089460D02*
X0087246Y0088710D01*
X0087246Y0086458D01*
X0091750Y0086458D01*
X0091750Y0088710D01*
X0090999Y0089460D01*
X0087997Y0089460D01*
X0087246Y0084856D02*
X0091750Y0084856D01*
X0087246Y0081854D01*
X0091750Y0081854D01*
X0090999Y0080253D02*
X0089498Y0080253D01*
X0089498Y0078751D01*
X0087997Y0077250D02*
X0090999Y0077250D01*
X0091750Y0078001D01*
X0091750Y0079502D01*
X0090999Y0080253D01*
X0087997Y0080253D02*
X0087246Y0079502D01*
X0087246Y0078001D01*
X0087997Y0077250D01*
X0097246Y0078001D02*
X0097997Y0077250D01*
X0098747Y0077250D01*
X0099498Y0078001D01*
X0099498Y0079502D01*
X0100249Y0080253D01*
X0100999Y0080253D01*
X0101750Y0079502D01*
X0101750Y0078001D01*
X0100999Y0077250D01*
X0097246Y0078001D02*
X0097246Y0079502D01*
X0097997Y0080253D01*
X0097246Y0081854D02*
X0101750Y0081854D01*
X0100249Y0083355D01*
X0101750Y0084856D01*
X0097246Y0084856D01*
X0097997Y0086458D02*
X0100999Y0086458D01*
X0101750Y0087208D01*
X0101750Y0088710D01*
X0100999Y0089460D01*
X0101750Y0091062D02*
X0101750Y0094064D01*
X0101750Y0095666D02*
X0097246Y0095666D01*
X0099498Y0096416D02*
X0101750Y0098668D01*
X0100249Y0095666D02*
X0097246Y0098668D01*
X0097246Y0091062D02*
X0101750Y0091062D01*
X0097997Y0089460D02*
X0097246Y0088710D01*
X0097246Y0087208D01*
X0097997Y0086458D01*
X0107246Y0086458D02*
X0107246Y0088710D01*
X0107997Y0089460D01*
X0110999Y0089460D01*
X0111750Y0088710D01*
X0111750Y0086458D01*
X0107246Y0086458D01*
X0107246Y0084856D02*
X0111750Y0084856D01*
X0110249Y0083355D01*
X0111750Y0081854D01*
X0107246Y0081854D01*
X0107997Y0080253D02*
X0107246Y0079502D01*
X0107246Y0078001D01*
X0107997Y0077250D01*
X0108747Y0077250D01*
X0109498Y0078001D01*
X0109498Y0079502D01*
X0110249Y0080253D01*
X0110999Y0080253D01*
X0111750Y0079502D01*
X0111750Y0078001D01*
X0110999Y0077250D01*
X0117246Y0078001D02*
X0117997Y0077250D01*
X0117246Y0078001D02*
X0117246Y0079502D01*
X0117997Y0080253D01*
X0118747Y0080253D01*
X0119498Y0079502D01*
X0120249Y0080253D01*
X0120999Y0080253D01*
X0121750Y0079502D01*
X0121750Y0078001D01*
X0120999Y0077250D01*
X0119498Y0078751D02*
X0119498Y0079502D01*
X0120249Y0081854D02*
X0117246Y0081854D01*
X0117246Y0084856D02*
X0120249Y0084856D01*
X0121750Y0083355D01*
X0120249Y0081854D01*
X0120999Y0086458D02*
X0121750Y0087208D01*
X0121750Y0088710D01*
X0120999Y0089460D01*
X0120249Y0089460D01*
X0119498Y0088710D01*
X0119498Y0087959D01*
X0119498Y0088710D02*
X0118747Y0089460D01*
X0117997Y0089460D01*
X0117246Y0088710D01*
X0117246Y0087208D01*
X0117997Y0086458D01*
X0111750Y0091062D02*
X0111750Y0092563D01*
X0111750Y0091812D02*
X0107246Y0091812D01*
X0107246Y0091062D02*
X0107246Y0092563D01*
X0107997Y0094131D02*
X0110999Y0094131D01*
X0111750Y0094882D01*
X0111750Y0096383D01*
X0110999Y0097134D01*
X0107997Y0097134D01*
X0107246Y0096383D01*
X0107246Y0094882D01*
X0107997Y0094131D01*
X0127246Y0089460D02*
X0127246Y0086458D01*
X0127246Y0087959D02*
X0131750Y0087959D01*
X0130999Y0084856D02*
X0131750Y0084106D01*
X0131750Y0082605D01*
X0130999Y0081854D01*
X0129498Y0082605D02*
X0129498Y0084106D01*
X0130249Y0084856D01*
X0130999Y0084856D01*
X0129498Y0082605D02*
X0128747Y0081854D01*
X0127997Y0081854D01*
X0127246Y0082605D01*
X0127246Y0084106D01*
X0127997Y0084856D01*
X0127997Y0080253D02*
X0129498Y0080253D01*
X0130249Y0079502D01*
X0130249Y0077250D01*
X0131750Y0077250D02*
X0127246Y0077250D01*
X0127246Y0079502D01*
X0127997Y0080253D01*
X0130249Y0078751D02*
X0131750Y0080253D01*
X0137246Y0079502D02*
X0137246Y0078001D01*
X0137997Y0077250D01*
X0138747Y0077250D01*
X0139498Y0078001D01*
X0139498Y0079502D01*
X0140249Y0080253D01*
X0140999Y0080253D01*
X0141750Y0079502D01*
X0141750Y0078001D01*
X0140999Y0077250D01*
X0137997Y0080253D02*
X0137246Y0079502D01*
X0137246Y0081854D02*
X0141750Y0081854D01*
X0140249Y0083355D01*
X0141750Y0084856D01*
X0137246Y0084856D01*
X0137997Y0086458D02*
X0140999Y0086458D01*
X0141750Y0087208D01*
X0141750Y0088710D01*
X0140999Y0089460D01*
X0137997Y0089460D01*
X0137246Y0088710D01*
X0137246Y0087208D01*
X0137997Y0086458D01*
X0138747Y0091062D02*
X0137246Y0092563D01*
X0137246Y0094131D02*
X0137246Y0096383D01*
X0137997Y0097134D01*
X0139498Y0097134D01*
X0140249Y0096383D01*
X0140249Y0094131D01*
X0141750Y0094131D02*
X0137246Y0094131D01*
X0138747Y0091062D02*
X0140249Y0091062D01*
X0141750Y0092563D01*
X0141750Y0098735D02*
X0137246Y0098735D01*
X0137246Y0100987D01*
X0137997Y0101738D01*
X0138747Y0101738D01*
X0139498Y0100987D01*
X0139498Y0098735D01*
X0141750Y0098735D02*
X0141750Y0100987D01*
X0140999Y0101738D01*
X0140249Y0101738D01*
X0139498Y0100987D01*
X0137997Y0103339D02*
X0137246Y0104090D01*
X0137246Y0105591D01*
X0137997Y0106341D01*
X0138747Y0106341D01*
X0139498Y0105591D01*
X0140249Y0106341D01*
X0140999Y0106341D01*
X0141750Y0105591D01*
X0141750Y0104090D01*
X0140999Y0103339D01*
X0139498Y0104840D02*
X0139498Y0105591D01*
X0137246Y0107943D02*
X0138747Y0109444D01*
X0140249Y0109444D01*
X0141750Y0107943D01*
X0141341Y0117250D02*
X0139090Y0119502D01*
X0138339Y0118751D02*
X0141341Y0121754D01*
X0138339Y0121754D02*
X0138339Y0117250D01*
X0136738Y0117250D02*
X0136738Y0121754D01*
X0133735Y0121754D02*
X0136738Y0117250D01*
X0133735Y0117250D02*
X0133735Y0121754D01*
X0132167Y0121754D02*
X0130666Y0121754D01*
X0131416Y0121754D02*
X0131416Y0117250D01*
X0130666Y0117250D02*
X0132167Y0117250D01*
X0129064Y0117250D02*
X0126062Y0117250D01*
X0126062Y0121754D01*
X0124460Y0119502D02*
X0121458Y0119502D01*
X0119856Y0117250D02*
X0116854Y0121754D01*
X0115253Y0121754D02*
X0115253Y0117250D01*
X0116854Y0117250D02*
X0119856Y0121754D01*
X0115253Y0121754D02*
X0113751Y0120253D01*
X0112250Y0121754D01*
X0112250Y0117250D01*
X0099856Y0117250D02*
X0096854Y0117250D01*
X0099856Y0120253D01*
X0099856Y0121003D01*
X0099106Y0121754D01*
X0097605Y0121754D01*
X0096854Y0121003D01*
X0095253Y0121754D02*
X0093751Y0121754D01*
X0094502Y0121754D02*
X0094502Y0118001D01*
X0093751Y0117250D01*
X0093001Y0117250D01*
X0092250Y0118001D01*
X0096247Y0160542D02*
X0094746Y0162043D01*
X0099250Y0162043D01*
X0099250Y0160542D02*
X0099250Y0163545D01*
X0098499Y0165146D02*
X0095497Y0168149D01*
X0098499Y0168149D01*
X0099250Y0167398D01*
X0099250Y0165897D01*
X0098499Y0165146D01*
X0095497Y0165146D01*
X0094746Y0165897D01*
X0094746Y0167398D01*
X0095497Y0168149D01*
X0104746Y0166398D02*
X0104746Y0164897D01*
X0105497Y0164146D01*
X0106247Y0164146D01*
X0106998Y0164897D01*
X0106998Y0166398D01*
X0107749Y0167149D01*
X0108499Y0167149D01*
X0109250Y0166398D01*
X0109250Y0164897D01*
X0108499Y0164146D01*
X0107749Y0164146D01*
X0106998Y0164897D01*
X0106998Y0166398D02*
X0106247Y0167149D01*
X0105497Y0167149D01*
X0104746Y0166398D01*
X0114746Y0167149D02*
X0115497Y0165647D01*
X0116998Y0164146D01*
X0116998Y0166398D01*
X0117749Y0167149D01*
X0118499Y0167149D01*
X0119250Y0166398D01*
X0119250Y0164897D01*
X0118499Y0164146D01*
X0116998Y0164146D01*
X0124746Y0166398D02*
X0126998Y0164146D01*
X0126998Y0167149D01*
X0129250Y0166398D02*
X0124746Y0166398D01*
X0134746Y0166398D02*
X0134746Y0164897D01*
X0135497Y0164146D01*
X0134746Y0166398D02*
X0135497Y0167149D01*
X0136247Y0167149D01*
X0139250Y0164146D01*
X0139250Y0167149D01*
X0069250Y0167149D02*
X0069250Y0164146D01*
X0066247Y0167149D01*
X0065497Y0167149D01*
X0064746Y0166398D01*
X0064746Y0164897D01*
X0065497Y0164146D01*
X0059250Y0166398D02*
X0054746Y0166398D01*
X0056998Y0164146D01*
X0056998Y0167149D01*
X0049250Y0166398D02*
X0049250Y0164897D01*
X0048499Y0164146D01*
X0046998Y0164146D01*
X0046998Y0166398D01*
X0047749Y0167149D01*
X0048499Y0167149D01*
X0049250Y0166398D01*
X0046998Y0164146D02*
X0045497Y0165647D01*
X0044746Y0167149D01*
X0039250Y0166398D02*
X0039250Y0164897D01*
X0038499Y0164146D01*
X0037749Y0164146D01*
X0036998Y0164897D01*
X0036998Y0166398D01*
X0037749Y0167149D01*
X0038499Y0167149D01*
X0039250Y0166398D01*
X0036998Y0166398D02*
X0036247Y0167149D01*
X0035497Y0167149D01*
X0034746Y0166398D01*
X0034746Y0164897D01*
X0035497Y0164146D01*
X0036247Y0164146D01*
X0036998Y0164897D01*
X0029250Y0165897D02*
X0028499Y0165146D01*
X0025497Y0168149D01*
X0028499Y0168149D01*
X0029250Y0167398D01*
X0029250Y0165897D01*
X0028499Y0165146D02*
X0025497Y0165146D01*
X0024746Y0165897D01*
X0024746Y0167398D01*
X0025497Y0168149D01*
X0029250Y0163545D02*
X0029250Y0160542D01*
X0029250Y0162043D02*
X0024746Y0162043D01*
X0026247Y0160542D01*
X0086251Y0061754D02*
X0087753Y0061754D01*
X0087002Y0061754D02*
X0087002Y0058001D01*
X0086251Y0057250D01*
X0085501Y0057250D01*
X0084750Y0058001D01*
X0089354Y0058001D02*
X0090105Y0057250D01*
X0091606Y0057250D01*
X0092356Y0058001D01*
X0092356Y0059502D01*
X0091606Y0060253D01*
X0090855Y0060253D01*
X0089354Y0059502D01*
X0089354Y0061754D01*
X0092356Y0061754D01*
X0112250Y0061754D02*
X0112250Y0057250D01*
X0114502Y0057250D01*
X0115253Y0058001D01*
X0115253Y0058751D01*
X0114502Y0059502D01*
X0112250Y0059502D01*
X0112250Y0061754D02*
X0114502Y0061754D01*
X0115253Y0061003D01*
X0115253Y0060253D01*
X0114502Y0059502D01*
X0116854Y0061754D02*
X0116854Y0057250D01*
X0119856Y0057250D01*
X0121458Y0058001D02*
X0122208Y0057250D01*
X0123710Y0057250D01*
X0124460Y0058001D01*
X0124460Y0061754D01*
X0126062Y0061754D02*
X0126062Y0057250D01*
X0129064Y0057250D01*
X0130666Y0057250D02*
X0130666Y0061754D01*
X0132918Y0061754D01*
X0133668Y0061003D01*
X0133668Y0059502D01*
X0132918Y0058751D01*
X0130666Y0058751D01*
X0127563Y0059502D02*
X0126062Y0059502D01*
X0126062Y0061754D02*
X0129064Y0061754D01*
X0135270Y0061754D02*
X0136771Y0061754D01*
X0136020Y0061754D02*
X0136020Y0057250D01*
X0135270Y0057250D02*
X0136771Y0057250D01*
X0138339Y0057250D02*
X0141341Y0057250D01*
X0142943Y0057250D02*
X0145945Y0057250D01*
X0142943Y0057250D02*
X0142943Y0061754D01*
X0138339Y0061754D02*
X0138339Y0057250D01*
X0121458Y0058001D02*
X0121458Y0061754D01*
X0085106Y0020754D02*
X0083605Y0020754D01*
X0082854Y0020003D01*
X0082854Y0017001D01*
X0085856Y0020003D01*
X0085856Y0017001D01*
X0085106Y0016250D01*
X0083605Y0016250D01*
X0082854Y0017001D01*
X0081253Y0016250D02*
X0078250Y0016250D01*
X0081253Y0019253D01*
X0081253Y0020003D01*
X0080502Y0020754D01*
X0079001Y0020754D01*
X0078250Y0020003D01*
X0085106Y0020754D02*
X0085856Y0020003D01*
D12*
X0090000Y0019500D02*
X0090000Y0018500D01*
X0090000Y0014500D01*
X0074000Y0014500D01*
X0058500Y0014500D01*
X0057000Y0016500D01*
X0055000Y0016500D01*
X0049000Y0016500D01*
X0047000Y0016500D01*
X0045500Y0014500D01*
X0040000Y0014500D01*
X0040000Y0015000D01*
X0034000Y0015000D01*
X0034000Y0014500D01*
X0017000Y0014500D01*
X0017000Y0049500D01*
X0022000Y0049500D01*
X0022000Y0050500D01*
X0027000Y0050500D01*
X0027000Y0049500D01*
X0079500Y0049500D01*
X0079500Y0050500D01*
X0084500Y0050500D01*
X0084500Y0049500D01*
X0137000Y0049500D01*
X0137000Y0050500D01*
X0142000Y0050500D01*
X0142000Y0049500D01*
X0147000Y0049500D01*
X0147000Y0014500D01*
X0128500Y0014500D01*
X0127000Y0016500D01*
X0125000Y0016500D01*
X0119000Y0016500D01*
X0117000Y0016500D01*
X0115500Y0014500D01*
X0090000Y0014500D01*
X0090000Y0019500D02*
X0119000Y0019500D01*
X0125000Y0019500D01*
X0125000Y0018500D01*
X0125000Y0016500D01*
X0125000Y0019500D02*
X0142000Y0019500D01*
X0142000Y0044500D01*
X0022000Y0044500D01*
X0022000Y0019500D01*
X0049000Y0019500D01*
X0055000Y0019500D01*
X0055000Y0018500D01*
X0055000Y0016500D01*
X0055000Y0019500D02*
X0074000Y0019500D01*
X0074000Y0018500D01*
X0074000Y0014500D01*
X0074000Y0019500D02*
X0074000Y0022500D01*
X0090000Y0022500D01*
X0090000Y0019500D01*
X0119000Y0019500D02*
X0119000Y0018500D01*
X0119000Y0016500D01*
X0117000Y0064500D02*
X0122000Y0064500D01*
X0124500Y0067000D01*
X0127000Y0064500D01*
X0132000Y0064500D01*
X0134500Y0067000D01*
X0137000Y0064500D01*
X0142000Y0064500D01*
X0144500Y0067000D01*
X0144500Y0072000D01*
X0142000Y0074500D01*
X0137000Y0074500D01*
X0134500Y0072000D01*
X0132000Y0074500D01*
X0127000Y0074500D01*
X0124500Y0072000D01*
X0122000Y0074500D01*
X0117000Y0074500D01*
X0114500Y0072000D01*
X0112000Y0074500D01*
X0107000Y0074500D01*
X0104500Y0072000D01*
X0102000Y0074500D01*
X0097000Y0074500D01*
X0094500Y0072000D01*
X0092000Y0074500D01*
X0087000Y0074500D01*
X0084500Y0072000D01*
X0084500Y0067000D01*
X0087000Y0064500D01*
X0092000Y0064500D01*
X0094500Y0067000D01*
X0097000Y0064500D01*
X0102000Y0064500D01*
X0104500Y0067000D01*
X0107000Y0064500D01*
X0112000Y0064500D01*
X0114500Y0067000D01*
X0117000Y0064500D01*
X0077000Y0064500D02*
X0055000Y0064500D01*
X0055000Y0068500D01*
X0055000Y0069500D01*
X0072000Y0069500D01*
X0072000Y0094500D01*
X0022000Y0094500D01*
X0022000Y0069500D01*
X0039000Y0069500D01*
X0039000Y0068500D01*
X0039000Y0064500D01*
X0037000Y0064500D01*
X0037000Y0065000D01*
X0032000Y0065000D01*
X0032000Y0064500D01*
X0017000Y0064500D01*
X0017000Y0099500D01*
X0022000Y0099500D01*
X0022000Y0100500D01*
X0027000Y0100500D01*
X0027000Y0099500D01*
X0044500Y0099500D01*
X0044500Y0100500D01*
X0049500Y0100500D01*
X0049500Y0099500D01*
X0067000Y0099500D01*
X0067000Y0100500D01*
X0072000Y0100500D01*
X0072000Y0099500D01*
X0077000Y0099500D01*
X0077000Y0064500D01*
X0055000Y0064500D02*
X0039000Y0064500D01*
X0039000Y0069500D02*
X0039000Y0072500D01*
X0055000Y0072500D01*
X0055000Y0069500D01*
X0049000Y0019500D02*
X0049000Y0018500D01*
X0049000Y0016500D01*
X0049000Y0140500D02*
X0052000Y0140500D01*
X0052000Y0172000D01*
X0042000Y0172000D01*
X0032000Y0172000D01*
X0022000Y0172000D01*
X0022000Y0140500D01*
X0025000Y0140500D01*
X0029000Y0140500D02*
X0032000Y0140500D01*
X0035000Y0140500D01*
X0032000Y0140500D02*
X0032000Y0172000D01*
X0042000Y0172000D02*
X0042000Y0140500D01*
X0039000Y0140500D01*
X0042000Y0140500D02*
X0045000Y0140500D01*
X0052000Y0140500D02*
X0055000Y0140500D01*
X0059000Y0140500D02*
X0062000Y0140500D01*
X0062000Y0172000D01*
X0072000Y0172000D01*
X0072000Y0140500D01*
X0069000Y0140500D01*
X0065000Y0140500D02*
X0062000Y0140500D01*
X0062000Y0172000D02*
X0052000Y0172000D01*
X0092000Y0172000D02*
X0092000Y0140500D01*
X0095000Y0140500D01*
X0099000Y0140500D02*
X0102000Y0140500D01*
X0105000Y0140500D01*
X0102000Y0140500D02*
X0102000Y0172000D01*
X0112000Y0172000D01*
X0112000Y0140500D01*
X0109000Y0140500D01*
X0112000Y0140500D02*
X0115000Y0140500D01*
X0119000Y0140500D02*
X0122000Y0140500D01*
X0122000Y0172000D01*
X0112000Y0172000D01*
X0102000Y0172000D02*
X0092000Y0172000D01*
X0122000Y0172000D02*
X0132000Y0172000D01*
X0142000Y0172000D01*
X0142000Y0140500D01*
X0139000Y0140500D01*
X0135000Y0140500D02*
X0132000Y0140500D01*
X0129000Y0140500D01*
X0132000Y0140500D02*
X0132000Y0172000D01*
X0125000Y0140500D02*
X0122000Y0140500D01*
D13*
X0073000Y0095500D02*
X0021000Y0095500D01*
X0021000Y0068500D01*
X0039000Y0068500D01*
X0055000Y0068500D02*
X0073000Y0068500D01*
X0073000Y0095500D01*
X0021000Y0045500D02*
X0021000Y0018500D01*
X0049000Y0018500D01*
X0055000Y0018500D02*
X0074000Y0018500D01*
X0090000Y0018500D02*
X0119000Y0018500D01*
X0125000Y0018500D02*
X0143000Y0018500D01*
X0143000Y0045500D01*
X0021000Y0045500D01*
D14*
X0027000Y0132000D03*
X0037000Y0132000D03*
X0047000Y0132000D03*
X0057000Y0132000D03*
X0067000Y0132000D03*
X0097000Y0132000D03*
X0107000Y0132000D03*
X0117000Y0132000D03*
X0127000Y0132000D03*
X0137000Y0132000D03*
M02*
