G75*
%MOIN*%
%OFA0B0*%
%FSLAX25Y25*%
%IPPOS*%
%LPD*%
%AMOC8*
5,1,8,0,0,1.08239X$1,22.5*
%
%ADD10OC8,0.06000*%
%ADD11OC8,0.06400*%
D10*
X0037000Y0027000D03*
X0037000Y0037000D03*
X0047000Y0037000D03*
X0047000Y0027000D03*
X0057000Y0027000D03*
X0057000Y0037000D03*
X0067000Y0037000D03*
X0067000Y0027000D03*
X0077000Y0027000D03*
X0077000Y0037000D03*
X0087000Y0037000D03*
X0087000Y0027000D03*
X0097000Y0027000D03*
X0097000Y0037000D03*
X0107000Y0037000D03*
X0107000Y0027000D03*
X0117000Y0027000D03*
X0117000Y0037000D03*
X0127000Y0037000D03*
X0127000Y0027000D03*
X0057000Y0077000D03*
X0057000Y0087000D03*
X0047000Y0087000D03*
X0047000Y0077000D03*
X0037000Y0077000D03*
X0037000Y0087000D03*
D11*
X0037000Y0127000D03*
X0037000Y0137000D03*
X0027000Y0137000D03*
X0027000Y0127000D03*
X0047000Y0127000D03*
X0047000Y0137000D03*
X0057000Y0137000D03*
X0057000Y0127000D03*
X0067000Y0127000D03*
X0067000Y0137000D03*
X0097000Y0137000D03*
X0097000Y0127000D03*
X0107000Y0127000D03*
X0107000Y0137000D03*
X0117000Y0137000D03*
X0117000Y0127000D03*
X0127000Y0127000D03*
X0127000Y0137000D03*
X0137000Y0137000D03*
X0137000Y0127000D03*
X0139500Y0069500D03*
X0129500Y0069500D03*
X0119500Y0069500D03*
X0109500Y0069500D03*
X0099500Y0069500D03*
X0089500Y0069500D03*
M02*
