G75*
%MOIN*%
%OFA0B0*%
%FSLAX25Y25*%
%IPPOS*%
%LPD*%
%AMOC8*
5,1,8,0,0,1.08239X$1,22.5*
%
%ADD10OC8,0.05600*%
%ADD11OC8,0.06000*%
%ADD12C,0.01200*%
%ADD13C,0.02000*%
D10*
X0037000Y0027000D03*
X0037000Y0037000D03*
X0047000Y0037000D03*
X0047000Y0027000D03*
X0057000Y0027000D03*
X0057000Y0037000D03*
X0067000Y0037000D03*
X0067000Y0027000D03*
X0077000Y0027000D03*
X0077000Y0037000D03*
X0087000Y0037000D03*
X0087000Y0027000D03*
X0097000Y0027000D03*
X0097000Y0037000D03*
X0107000Y0037000D03*
X0107000Y0027000D03*
X0117000Y0027000D03*
X0117000Y0037000D03*
X0127000Y0037000D03*
X0127000Y0027000D03*
X0057000Y0077000D03*
X0057000Y0087000D03*
X0047000Y0087000D03*
X0047000Y0077000D03*
X0037000Y0077000D03*
X0037000Y0087000D03*
D11*
X0037000Y0127000D03*
X0037000Y0137000D03*
X0027000Y0137000D03*
X0027000Y0127000D03*
X0047000Y0127000D03*
X0047000Y0137000D03*
X0057000Y0137000D03*
X0057000Y0127000D03*
X0067000Y0127000D03*
X0067000Y0137000D03*
X0097000Y0137000D03*
X0097000Y0127000D03*
X0107000Y0127000D03*
X0107000Y0137000D03*
X0117000Y0137000D03*
X0117000Y0127000D03*
X0127000Y0127000D03*
X0127000Y0137000D03*
X0137000Y0137000D03*
X0137000Y0127000D03*
X0139500Y0069500D03*
X0129500Y0069500D03*
X0119500Y0069500D03*
X0109500Y0069500D03*
X0099500Y0069500D03*
X0089500Y0069500D03*
D12*
X0099500Y0069500D02*
X0072000Y0042000D01*
X0072000Y0032000D01*
X0077000Y0027000D01*
X0077000Y0017000D02*
X0067000Y0027000D01*
X0077000Y0017000D02*
X0087000Y0017000D01*
X0092000Y0022000D01*
X0092000Y0042000D01*
X0109500Y0059500D01*
X0109500Y0069500D01*
X0129500Y0069500D02*
X0129500Y0059500D01*
X0112000Y0042000D01*
X0112000Y0032000D01*
X0107000Y0027000D01*
X0107000Y0017000D02*
X0097000Y0027000D01*
X0107000Y0017000D02*
X0132000Y0017000D01*
X0139500Y0024500D01*
X0139500Y0069500D01*
X0139500Y0079500D01*
X0127000Y0092000D01*
X0127000Y0127000D01*
X0067000Y0127000D02*
X0067000Y0077000D01*
X0062000Y0072000D01*
X0052000Y0072000D01*
X0047000Y0077000D01*
X0042000Y0082000D02*
X0059500Y0082000D01*
X0062000Y0084500D01*
X0062000Y0112000D01*
X0062000Y0132000D01*
X0067000Y0137000D01*
X0047000Y0137000D02*
X0042000Y0132000D01*
X0042000Y0112000D01*
X0047000Y0107000D01*
X0047000Y0087000D01*
X0042000Y0082000D02*
X0037000Y0087000D01*
X0057000Y0087000D02*
X0057000Y0107000D01*
X0047000Y0117000D01*
X0047000Y0127000D01*
D13*
X0050200Y0122280D02*
X0052424Y0124505D01*
X0054929Y0122000D01*
X0057000Y0122000D01*
X0058800Y0122000D01*
X0058800Y0109725D01*
X0050200Y0118325D01*
X0050200Y0122280D01*
X0050200Y0121918D02*
X0058800Y0121918D01*
X0057000Y0122000D02*
X0057000Y0127000D01*
X0057000Y0127000D01*
X0057000Y0132000D01*
X0058800Y0132000D01*
X0058800Y0132000D01*
X0057000Y0132000D01*
X0057000Y0137000D01*
X0057000Y0137000D01*
X0057000Y0132000D01*
X0054929Y0132000D01*
X0052424Y0129495D01*
X0049920Y0132000D01*
X0052424Y0134505D01*
X0054929Y0132000D01*
X0057000Y0132000D01*
X0057000Y0127000D01*
X0057000Y0127000D01*
X0057000Y0122000D01*
X0057000Y0123917D02*
X0057000Y0123917D01*
X0057000Y0125915D02*
X0057000Y0125915D01*
X0057000Y0127914D02*
X0057000Y0127914D01*
X0057000Y0129912D02*
X0057000Y0129912D01*
X0057000Y0131911D02*
X0057000Y0131911D01*
X0057000Y0133909D02*
X0057000Y0133909D01*
X0057000Y0135908D02*
X0057000Y0135908D01*
X0053020Y0133909D02*
X0051829Y0133909D01*
X0050009Y0131911D02*
X0054840Y0131911D01*
X0052841Y0129912D02*
X0052007Y0129912D01*
X0051836Y0123917D02*
X0053012Y0123917D01*
X0050200Y0119920D02*
X0058800Y0119920D01*
X0058800Y0117921D02*
X0050604Y0117921D01*
X0052603Y0115923D02*
X0058800Y0115923D01*
X0058800Y0113924D02*
X0054601Y0113924D01*
X0056600Y0111926D02*
X0058800Y0111926D01*
X0058800Y0109927D02*
X0058598Y0109927D01*
X0070200Y0109927D02*
X0103400Y0109927D01*
X0103400Y0107929D02*
X0070200Y0107929D01*
X0070200Y0105930D02*
X0103400Y0105930D01*
X0103400Y0103932D02*
X0070200Y0103932D01*
X0070200Y0101933D02*
X0103400Y0101933D01*
X0103400Y0099934D02*
X0070200Y0099934D01*
X0070200Y0097936D02*
X0103400Y0097936D01*
X0103400Y0095937D02*
X0070200Y0095937D01*
X0070200Y0093939D02*
X0103400Y0093939D01*
X0103400Y0091940D02*
X0070200Y0091940D01*
X0070200Y0089942D02*
X0103967Y0089942D01*
X0103948Y0089961D02*
X0104961Y0088948D01*
X0115900Y0078009D01*
X0115900Y0073820D01*
X0114500Y0072420D01*
X0111820Y0075100D01*
X0107180Y0075100D01*
X0104500Y0072420D01*
X0101820Y0075100D01*
X0097180Y0075100D01*
X0094076Y0071995D01*
X0091571Y0074500D01*
X0089500Y0074500D01*
X0089500Y0069500D01*
X0089500Y0069500D01*
X0089500Y0064500D01*
X0089975Y0064500D01*
X0069287Y0043813D01*
X0068800Y0042637D01*
X0068800Y0041800D01*
X0067000Y0041800D01*
X0067000Y0037000D01*
X0067000Y0037000D01*
X0067000Y0037000D01*
X0062200Y0037000D01*
X0062200Y0038988D01*
X0065012Y0041800D01*
X0067000Y0041800D01*
X0067000Y0037000D01*
X0062200Y0037000D01*
X0062200Y0035012D01*
X0064812Y0032400D01*
X0064763Y0032400D01*
X0062000Y0029637D01*
X0059237Y0032400D01*
X0059188Y0032400D01*
X0061800Y0035012D01*
X0061800Y0037000D01*
X0061800Y0038988D01*
X0058988Y0041800D01*
X0057000Y0041800D01*
X0057000Y0037000D01*
X0057000Y0037000D01*
X0061800Y0037000D01*
X0057000Y0037000D01*
X0057000Y0037000D01*
X0057000Y0037000D01*
X0052200Y0037000D01*
X0052200Y0038988D01*
X0055012Y0041800D01*
X0057000Y0041800D01*
X0057000Y0037000D01*
X0052200Y0037000D01*
X0052200Y0035012D01*
X0054812Y0032400D01*
X0054763Y0032400D01*
X0052000Y0029637D01*
X0049237Y0032400D01*
X0049188Y0032400D01*
X0051800Y0035012D01*
X0051800Y0037000D01*
X0051800Y0038988D01*
X0048988Y0041800D01*
X0047000Y0041800D01*
X0047000Y0037000D01*
X0047000Y0037000D01*
X0051800Y0037000D01*
X0047000Y0037000D01*
X0047000Y0037000D01*
X0047000Y0041800D01*
X0045012Y0041800D01*
X0042400Y0039188D01*
X0042400Y0039237D01*
X0040600Y0041037D01*
X0040600Y0072963D01*
X0042000Y0074363D01*
X0044763Y0071600D01*
X0047875Y0071600D01*
X0049287Y0070187D01*
X0050187Y0069287D01*
X0051363Y0068800D01*
X0062637Y0068800D01*
X0063813Y0069287D01*
X0068813Y0074287D01*
X0069713Y0075187D01*
X0070200Y0076363D01*
X0070200Y0122280D01*
X0072600Y0124680D01*
X0072600Y0129320D01*
X0069920Y0132000D01*
X0072600Y0134680D01*
X0072600Y0138400D01*
X0091400Y0138400D01*
X0091400Y0134680D01*
X0094080Y0132000D01*
X0091400Y0129320D01*
X0091400Y0124680D01*
X0094680Y0121400D01*
X0099320Y0121400D01*
X0102000Y0124080D01*
X0103400Y0122680D01*
X0103400Y0091284D01*
X0103948Y0089961D01*
X0105965Y0087943D02*
X0070200Y0087943D01*
X0070200Y0085945D02*
X0107964Y0085945D01*
X0109962Y0083946D02*
X0070200Y0083946D01*
X0070200Y0081948D02*
X0111961Y0081948D01*
X0113959Y0079949D02*
X0070200Y0079949D01*
X0070200Y0077951D02*
X0115900Y0077951D01*
X0115900Y0075952D02*
X0070030Y0075952D01*
X0068479Y0073954D02*
X0086883Y0073954D01*
X0087429Y0074500D02*
X0084500Y0071571D01*
X0084500Y0069500D01*
X0089500Y0069500D01*
X0089500Y0069500D01*
X0089500Y0069500D01*
X0089500Y0074500D01*
X0087429Y0074500D01*
X0089500Y0073954D02*
X0089500Y0073954D01*
X0089500Y0071955D02*
X0089500Y0071955D01*
X0089500Y0069957D02*
X0089500Y0069957D01*
X0089500Y0069500D02*
X0084500Y0069500D01*
X0084500Y0067429D01*
X0087429Y0064500D01*
X0089500Y0064500D01*
X0089500Y0069500D01*
X0089500Y0067958D02*
X0089500Y0067958D01*
X0089500Y0065960D02*
X0089500Y0065960D01*
X0089436Y0063961D02*
X0040600Y0063961D01*
X0040600Y0061963D02*
X0087437Y0061963D01*
X0085439Y0059964D02*
X0040600Y0059964D01*
X0040600Y0057966D02*
X0083440Y0057966D01*
X0081442Y0055967D02*
X0040600Y0055967D01*
X0040600Y0053969D02*
X0079443Y0053969D01*
X0077445Y0051970D02*
X0040600Y0051970D01*
X0040600Y0049972D02*
X0075446Y0049972D01*
X0073448Y0047973D02*
X0040600Y0047973D01*
X0040600Y0045975D02*
X0071449Y0045975D01*
X0069451Y0043976D02*
X0040600Y0043976D01*
X0040600Y0041978D02*
X0068800Y0041978D01*
X0067000Y0039979D02*
X0067000Y0039979D01*
X0067000Y0037981D02*
X0067000Y0037981D01*
X0063191Y0039979D02*
X0060809Y0039979D01*
X0061800Y0037981D02*
X0062200Y0037981D01*
X0062200Y0035982D02*
X0061800Y0035982D01*
X0060772Y0033984D02*
X0063228Y0033984D01*
X0064348Y0031985D02*
X0059652Y0031985D01*
X0061650Y0029987D02*
X0062350Y0029987D01*
X0057000Y0037981D02*
X0057000Y0037981D01*
X0057000Y0039979D02*
X0057000Y0039979D01*
X0053191Y0039979D02*
X0050809Y0039979D01*
X0051800Y0037981D02*
X0052200Y0037981D01*
X0052200Y0035982D02*
X0051800Y0035982D01*
X0050772Y0033984D02*
X0053228Y0033984D01*
X0054348Y0031985D02*
X0049652Y0031985D01*
X0051650Y0029987D02*
X0052350Y0029987D01*
X0047000Y0037981D02*
X0047000Y0037981D01*
X0047000Y0039979D02*
X0047000Y0039979D01*
X0043191Y0039979D02*
X0041658Y0039979D01*
X0037000Y0037000D02*
X0037000Y0077000D01*
X0032000Y0082000D01*
X0032000Y0092000D01*
X0037000Y0097000D01*
X0037000Y0127000D01*
X0037000Y0137000D01*
X0042000Y0142000D01*
X0102000Y0142000D01*
X0107000Y0137000D01*
X0107000Y0127000D01*
X0107000Y0092000D01*
X0119500Y0079500D01*
X0119500Y0069500D01*
X0115121Y0065960D02*
X0113879Y0065960D01*
X0114500Y0066580D02*
X0117180Y0063900D01*
X0121820Y0063900D01*
X0124500Y0066580D01*
X0126300Y0064780D01*
X0126300Y0060825D01*
X0109287Y0043813D01*
X0108800Y0042637D01*
X0108800Y0041800D01*
X0107000Y0041800D01*
X0107000Y0037000D01*
X0107000Y0037000D01*
X0107000Y0037000D01*
X0102200Y0037000D01*
X0102200Y0038988D01*
X0105012Y0041800D01*
X0107000Y0041800D01*
X0107000Y0037000D01*
X0102200Y0037000D01*
X0102200Y0035012D01*
X0104812Y0032400D01*
X0104763Y0032400D01*
X0102000Y0029637D01*
X0099237Y0032400D01*
X0099188Y0032400D01*
X0101800Y0035012D01*
X0101800Y0037000D01*
X0101800Y0038988D01*
X0098988Y0041800D01*
X0097000Y0041800D01*
X0097000Y0037000D01*
X0097000Y0037000D01*
X0101800Y0037000D01*
X0097000Y0037000D01*
X0097000Y0037000D01*
X0097000Y0041800D01*
X0096325Y0041800D01*
X0112213Y0057687D01*
X0112700Y0058863D01*
X0112700Y0060137D01*
X0112700Y0064780D01*
X0114500Y0066580D01*
X0112700Y0063961D02*
X0117119Y0063961D01*
X0121881Y0063961D02*
X0126300Y0063961D01*
X0126300Y0061963D02*
X0112700Y0061963D01*
X0112700Y0059964D02*
X0125439Y0059964D01*
X0123440Y0057966D02*
X0112328Y0057966D01*
X0110493Y0055967D02*
X0121442Y0055967D01*
X0119443Y0053969D02*
X0108494Y0053969D01*
X0106496Y0051970D02*
X0117445Y0051970D01*
X0115446Y0049972D02*
X0104497Y0049972D01*
X0102499Y0047973D02*
X0113448Y0047973D01*
X0111449Y0045975D02*
X0100500Y0045975D01*
X0098502Y0043976D02*
X0109451Y0043976D01*
X0108800Y0041978D02*
X0096503Y0041978D01*
X0097000Y0039979D02*
X0097000Y0039979D01*
X0097000Y0037981D02*
X0097000Y0037981D01*
X0100809Y0039979D02*
X0103191Y0039979D01*
X0102200Y0037981D02*
X0101800Y0037981D01*
X0101800Y0035982D02*
X0102200Y0035982D01*
X0103228Y0033984D02*
X0100772Y0033984D01*
X0099652Y0031985D02*
X0104348Y0031985D01*
X0102350Y0029987D02*
X0101650Y0029987D01*
X0107000Y0037981D02*
X0107000Y0037981D01*
X0107000Y0039979D02*
X0107000Y0039979D01*
X0116325Y0041800D02*
X0131313Y0056787D01*
X0132213Y0057687D01*
X0132700Y0058863D01*
X0132700Y0064780D01*
X0134500Y0066580D01*
X0136300Y0064780D01*
X0136300Y0025825D01*
X0130675Y0020200D01*
X0108325Y0020200D01*
X0106925Y0021600D01*
X0109237Y0021600D01*
X0112000Y0024363D01*
X0114763Y0021600D01*
X0119237Y0021600D01*
X0122000Y0024363D01*
X0124763Y0021600D01*
X0129237Y0021600D01*
X0132400Y0024763D01*
X0132400Y0029237D01*
X0129237Y0032400D01*
X0129188Y0032400D01*
X0131800Y0035012D01*
X0131800Y0037000D01*
X0131800Y0038988D01*
X0128988Y0041800D01*
X0127000Y0041800D01*
X0127000Y0037000D01*
X0127000Y0037000D01*
X0131800Y0037000D01*
X0127000Y0037000D01*
X0127000Y0037000D01*
X0127000Y0037000D01*
X0122200Y0037000D01*
X0122200Y0038988D01*
X0125012Y0041800D01*
X0127000Y0041800D01*
X0127000Y0037000D01*
X0122200Y0037000D01*
X0122200Y0035012D01*
X0124812Y0032400D01*
X0124763Y0032400D01*
X0122000Y0029637D01*
X0119237Y0032400D01*
X0119188Y0032400D01*
X0121800Y0035012D01*
X0121800Y0037000D01*
X0121800Y0038988D01*
X0118988Y0041800D01*
X0117000Y0041800D01*
X0117000Y0037000D01*
X0117000Y0037000D01*
X0121800Y0037000D01*
X0117000Y0037000D01*
X0117000Y0037000D01*
X0117000Y0041800D01*
X0116325Y0041800D01*
X0116503Y0041978D02*
X0136300Y0041978D01*
X0136300Y0043976D02*
X0118502Y0043976D01*
X0120500Y0045975D02*
X0136300Y0045975D01*
X0136300Y0047973D02*
X0122499Y0047973D01*
X0124497Y0049972D02*
X0136300Y0049972D01*
X0136300Y0051970D02*
X0126496Y0051970D01*
X0128494Y0053969D02*
X0136300Y0053969D01*
X0136300Y0055967D02*
X0130493Y0055967D01*
X0132328Y0057966D02*
X0136300Y0057966D01*
X0136300Y0059964D02*
X0132700Y0059964D01*
X0132700Y0061963D02*
X0136300Y0061963D01*
X0136300Y0063961D02*
X0132700Y0063961D01*
X0133879Y0065960D02*
X0135121Y0065960D01*
X0134500Y0072420D02*
X0131820Y0075100D01*
X0127180Y0075100D01*
X0124500Y0072420D01*
X0123100Y0073820D01*
X0123100Y0080216D01*
X0122552Y0081539D01*
X0121539Y0082552D01*
X0110600Y0093491D01*
X0110600Y0122680D01*
X0112424Y0124505D01*
X0114929Y0122000D01*
X0117000Y0122000D01*
X0119071Y0122000D01*
X0121576Y0124505D01*
X0123800Y0122280D01*
X0123800Y0091363D01*
X0124287Y0090187D01*
X0136300Y0078175D01*
X0136300Y0074220D01*
X0134500Y0072420D01*
X0132966Y0073954D02*
X0136034Y0073954D01*
X0136300Y0075952D02*
X0123100Y0075952D01*
X0123100Y0073954D02*
X0126034Y0073954D01*
X0123100Y0077951D02*
X0136300Y0077951D01*
X0134525Y0079949D02*
X0123100Y0079949D01*
X0122143Y0081948D02*
X0132527Y0081948D01*
X0130528Y0083946D02*
X0120145Y0083946D01*
X0118146Y0085945D02*
X0128530Y0085945D01*
X0126531Y0087943D02*
X0116148Y0087943D01*
X0114149Y0089942D02*
X0124533Y0089942D01*
X0123800Y0091940D02*
X0112151Y0091940D01*
X0110600Y0093939D02*
X0123800Y0093939D01*
X0123800Y0095937D02*
X0110600Y0095937D01*
X0110600Y0097936D02*
X0123800Y0097936D01*
X0123800Y0099934D02*
X0110600Y0099934D01*
X0110600Y0101933D02*
X0123800Y0101933D01*
X0123800Y0103932D02*
X0110600Y0103932D01*
X0110600Y0105930D02*
X0123800Y0105930D01*
X0123800Y0107929D02*
X0110600Y0107929D01*
X0110600Y0109927D02*
X0123800Y0109927D01*
X0123800Y0111926D02*
X0110600Y0111926D01*
X0110600Y0113924D02*
X0123800Y0113924D01*
X0123800Y0115923D02*
X0110600Y0115923D01*
X0110600Y0117921D02*
X0123800Y0117921D01*
X0123800Y0119920D02*
X0110600Y0119920D01*
X0110600Y0121918D02*
X0123800Y0121918D01*
X0122164Y0123917D02*
X0120988Y0123917D01*
X0117000Y0123917D02*
X0117000Y0123917D01*
X0117000Y0122000D02*
X0117000Y0127000D01*
X0117000Y0127000D01*
X0117000Y0132000D01*
X0119071Y0132000D01*
X0121576Y0129495D01*
X0124080Y0132000D01*
X0121576Y0134505D01*
X0119071Y0132000D01*
X0117000Y0132000D01*
X0117000Y0137000D01*
X0117000Y0137000D01*
X0117000Y0142000D01*
X0119071Y0142000D01*
X0121576Y0139495D01*
X0124680Y0142600D01*
X0129320Y0142600D01*
X0132000Y0139920D01*
X0134680Y0142600D01*
X0139320Y0142600D01*
X0142600Y0139320D01*
X0142600Y0134680D01*
X0139920Y0132000D01*
X0142600Y0129320D01*
X0142600Y0124680D01*
X0139320Y0121400D01*
X0134680Y0121400D01*
X0132000Y0124080D01*
X0130200Y0122280D01*
X0130200Y0093325D01*
X0141313Y0082213D01*
X0142213Y0081313D01*
X0142700Y0080137D01*
X0142700Y0074220D01*
X0145100Y0071820D01*
X0145100Y0067180D01*
X0142700Y0064780D01*
X0142700Y0023863D01*
X0142213Y0022687D01*
X0134713Y0015187D01*
X0134125Y0014600D01*
X0146900Y0014600D01*
X0146900Y0144400D01*
X0104691Y0144400D01*
X0105052Y0144039D01*
X0106491Y0142600D01*
X0109320Y0142600D01*
X0112424Y0139495D01*
X0114929Y0142000D01*
X0117000Y0142000D01*
X0117000Y0137000D01*
X0117000Y0137000D01*
X0117000Y0132000D01*
X0114929Y0132000D01*
X0112424Y0129495D01*
X0110600Y0131320D01*
X0110600Y0132680D01*
X0112424Y0134505D01*
X0114929Y0132000D01*
X0117000Y0132000D01*
X0117000Y0127000D01*
X0117000Y0122000D01*
X0117000Y0125915D02*
X0117000Y0125915D01*
X0117000Y0127000D02*
X0117000Y0127000D01*
X0117000Y0127914D02*
X0117000Y0127914D01*
X0117000Y0129912D02*
X0117000Y0129912D01*
X0117000Y0131911D02*
X0117000Y0131911D01*
X0117000Y0133909D02*
X0117000Y0133909D01*
X0117000Y0135908D02*
X0117000Y0135908D01*
X0117000Y0137906D02*
X0117000Y0137906D01*
X0117000Y0139905D02*
X0117000Y0139905D01*
X0117000Y0141903D02*
X0117000Y0141903D01*
X0114832Y0141903D02*
X0110016Y0141903D01*
X0112015Y0139905D02*
X0112834Y0139905D01*
X0113020Y0133909D02*
X0111829Y0133909D01*
X0110600Y0131911D02*
X0114840Y0131911D01*
X0112841Y0129912D02*
X0112007Y0129912D01*
X0111836Y0123917D02*
X0113012Y0123917D01*
X0103400Y0121918D02*
X0099838Y0121918D01*
X0101836Y0123917D02*
X0102164Y0123917D01*
X0103400Y0119920D02*
X0070200Y0119920D01*
X0070200Y0121918D02*
X0094162Y0121918D01*
X0092164Y0123917D02*
X0071836Y0123917D01*
X0072600Y0125915D02*
X0091400Y0125915D01*
X0091400Y0127914D02*
X0072600Y0127914D01*
X0072007Y0129912D02*
X0091993Y0129912D01*
X0093991Y0131911D02*
X0070009Y0131911D01*
X0071829Y0133909D02*
X0092171Y0133909D01*
X0091400Y0135908D02*
X0072600Y0135908D01*
X0072600Y0137906D02*
X0091400Y0137906D01*
X0105189Y0143902D02*
X0146900Y0143902D01*
X0146900Y0141903D02*
X0140016Y0141903D01*
X0142015Y0139905D02*
X0146900Y0139905D01*
X0146900Y0137906D02*
X0142600Y0137906D01*
X0142600Y0135908D02*
X0146900Y0135908D01*
X0146900Y0133909D02*
X0141829Y0133909D01*
X0140009Y0131911D02*
X0146900Y0131911D01*
X0146900Y0129912D02*
X0142007Y0129912D01*
X0142600Y0127914D02*
X0146900Y0127914D01*
X0146900Y0125915D02*
X0142600Y0125915D01*
X0141836Y0123917D02*
X0146900Y0123917D01*
X0146900Y0121918D02*
X0139838Y0121918D01*
X0134162Y0121918D02*
X0130200Y0121918D01*
X0130200Y0119920D02*
X0146900Y0119920D01*
X0146900Y0117921D02*
X0130200Y0117921D01*
X0130200Y0115923D02*
X0146900Y0115923D01*
X0146900Y0113924D02*
X0130200Y0113924D01*
X0130200Y0111926D02*
X0146900Y0111926D01*
X0146900Y0109927D02*
X0130200Y0109927D01*
X0130200Y0107929D02*
X0146900Y0107929D01*
X0146900Y0105930D02*
X0130200Y0105930D01*
X0130200Y0103932D02*
X0146900Y0103932D01*
X0146900Y0101933D02*
X0130200Y0101933D01*
X0130200Y0099934D02*
X0146900Y0099934D01*
X0146900Y0097936D02*
X0130200Y0097936D01*
X0130200Y0095937D02*
X0146900Y0095937D01*
X0146900Y0093939D02*
X0130200Y0093939D01*
X0131585Y0091940D02*
X0146900Y0091940D01*
X0146900Y0089942D02*
X0133584Y0089942D01*
X0135582Y0087943D02*
X0146900Y0087943D01*
X0146900Y0085945D02*
X0137581Y0085945D01*
X0139579Y0083946D02*
X0146900Y0083946D01*
X0146900Y0081948D02*
X0141578Y0081948D01*
X0142700Y0079949D02*
X0146900Y0079949D01*
X0146900Y0077951D02*
X0142700Y0077951D01*
X0142700Y0075952D02*
X0146900Y0075952D01*
X0146900Y0073954D02*
X0142966Y0073954D01*
X0144964Y0071955D02*
X0146900Y0071955D01*
X0146900Y0069957D02*
X0145100Y0069957D01*
X0145100Y0067958D02*
X0146900Y0067958D01*
X0146900Y0065960D02*
X0143879Y0065960D01*
X0142700Y0063961D02*
X0146900Y0063961D01*
X0146900Y0061963D02*
X0142700Y0061963D01*
X0142700Y0059964D02*
X0146900Y0059964D01*
X0146900Y0057966D02*
X0142700Y0057966D01*
X0142700Y0055967D02*
X0146900Y0055967D01*
X0146900Y0053969D02*
X0142700Y0053969D01*
X0142700Y0051970D02*
X0146900Y0051970D01*
X0146900Y0049972D02*
X0142700Y0049972D01*
X0142700Y0047973D02*
X0146900Y0047973D01*
X0146900Y0045975D02*
X0142700Y0045975D01*
X0142700Y0043976D02*
X0146900Y0043976D01*
X0146900Y0041978D02*
X0142700Y0041978D01*
X0142700Y0039979D02*
X0146900Y0039979D01*
X0146900Y0037981D02*
X0142700Y0037981D01*
X0142700Y0035982D02*
X0146900Y0035982D01*
X0146900Y0033984D02*
X0142700Y0033984D01*
X0142700Y0031985D02*
X0146900Y0031985D01*
X0146900Y0029987D02*
X0142700Y0029987D01*
X0142700Y0027988D02*
X0146900Y0027988D01*
X0146900Y0025990D02*
X0142700Y0025990D01*
X0142700Y0023991D02*
X0146900Y0023991D01*
X0146900Y0021993D02*
X0141518Y0021993D01*
X0139520Y0019994D02*
X0146900Y0019994D01*
X0146900Y0017996D02*
X0137521Y0017996D01*
X0135523Y0015997D02*
X0146900Y0015997D01*
X0136300Y0025990D02*
X0132400Y0025990D01*
X0131628Y0023991D02*
X0134466Y0023991D01*
X0132467Y0021993D02*
X0129629Y0021993D01*
X0124371Y0021993D02*
X0119629Y0021993D01*
X0121628Y0023991D02*
X0122372Y0023991D01*
X0122350Y0029987D02*
X0121650Y0029987D01*
X0119652Y0031985D02*
X0124348Y0031985D01*
X0123228Y0033984D02*
X0120772Y0033984D01*
X0121800Y0035982D02*
X0122200Y0035982D01*
X0122200Y0037981D02*
X0121800Y0037981D01*
X0120809Y0039979D02*
X0123191Y0039979D01*
X0127000Y0039979D02*
X0127000Y0039979D01*
X0127000Y0037981D02*
X0127000Y0037981D01*
X0130809Y0039979D02*
X0136300Y0039979D01*
X0136300Y0037981D02*
X0131800Y0037981D01*
X0131800Y0035982D02*
X0136300Y0035982D01*
X0136300Y0033984D02*
X0130772Y0033984D01*
X0129652Y0031985D02*
X0136300Y0031985D01*
X0136300Y0029987D02*
X0131650Y0029987D01*
X0132400Y0027988D02*
X0136300Y0027988D01*
X0117000Y0037981D02*
X0117000Y0037981D01*
X0117000Y0039979D02*
X0117000Y0039979D01*
X0112372Y0023991D02*
X0111628Y0023991D01*
X0109629Y0021993D02*
X0114371Y0021993D01*
X0091449Y0045975D02*
X0080500Y0045975D01*
X0082499Y0047973D02*
X0093448Y0047973D01*
X0095446Y0049972D02*
X0084497Y0049972D01*
X0086496Y0051970D02*
X0097445Y0051970D01*
X0099443Y0053969D02*
X0088494Y0053969D01*
X0090493Y0055967D02*
X0101442Y0055967D01*
X0103440Y0057966D02*
X0092491Y0057966D01*
X0094490Y0059964D02*
X0105439Y0059964D01*
X0106300Y0060825D02*
X0090187Y0044713D01*
X0089287Y0043813D01*
X0088800Y0042637D01*
X0088800Y0041800D01*
X0087000Y0041800D01*
X0087000Y0037000D01*
X0087000Y0037000D01*
X0087000Y0037000D01*
X0082200Y0037000D01*
X0082200Y0038988D01*
X0085012Y0041800D01*
X0087000Y0041800D01*
X0087000Y0037000D01*
X0082200Y0037000D01*
X0082200Y0035012D01*
X0084812Y0032400D01*
X0084763Y0032400D01*
X0082000Y0029637D01*
X0079237Y0032400D01*
X0079188Y0032400D01*
X0081800Y0035012D01*
X0081800Y0037000D01*
X0081800Y0038988D01*
X0078988Y0041800D01*
X0077000Y0041800D01*
X0077000Y0037000D01*
X0077000Y0037000D01*
X0081800Y0037000D01*
X0077000Y0037000D01*
X0077000Y0037000D01*
X0077000Y0041800D01*
X0076325Y0041800D01*
X0098425Y0063900D01*
X0101820Y0063900D01*
X0104500Y0066580D01*
X0106300Y0064780D01*
X0106300Y0060825D01*
X0106300Y0061963D02*
X0096488Y0061963D01*
X0101881Y0063961D02*
X0106300Y0063961D01*
X0105121Y0065960D02*
X0103879Y0065960D01*
X0102966Y0073954D02*
X0106034Y0073954D01*
X0112966Y0073954D02*
X0115900Y0073954D01*
X0123879Y0065960D02*
X0125121Y0065960D01*
X0096034Y0073954D02*
X0092117Y0073954D01*
X0085969Y0065960D02*
X0040600Y0065960D01*
X0040600Y0067958D02*
X0084500Y0067958D01*
X0084500Y0069957D02*
X0064482Y0069957D01*
X0066481Y0071955D02*
X0084884Y0071955D01*
X0063800Y0078325D02*
X0063800Y0081775D01*
X0061407Y0079381D01*
X0061800Y0078988D01*
X0061800Y0077000D01*
X0057000Y0077000D01*
X0057000Y0077000D01*
X0061800Y0077000D01*
X0061800Y0076325D01*
X0063800Y0078325D01*
X0063425Y0077951D02*
X0061800Y0077951D01*
X0061975Y0079949D02*
X0063800Y0079949D01*
X0049518Y0069957D02*
X0040600Y0069957D01*
X0040600Y0071955D02*
X0044408Y0071955D01*
X0042409Y0073954D02*
X0041591Y0073954D01*
X0037000Y0037000D02*
X0037000Y0027000D01*
X0077000Y0037981D02*
X0077000Y0037981D01*
X0077000Y0039979D02*
X0077000Y0039979D01*
X0076503Y0041978D02*
X0088800Y0041978D01*
X0089451Y0043976D02*
X0078502Y0043976D01*
X0080809Y0039979D02*
X0083191Y0039979D01*
X0082200Y0037981D02*
X0081800Y0037981D01*
X0081800Y0035982D02*
X0082200Y0035982D01*
X0083228Y0033984D02*
X0080772Y0033984D01*
X0079652Y0031985D02*
X0084348Y0031985D01*
X0082350Y0029987D02*
X0081650Y0029987D01*
X0087000Y0037981D02*
X0087000Y0037981D01*
X0087000Y0039979D02*
X0087000Y0039979D01*
X0090187Y0044713D02*
X0090187Y0044713D01*
X0103400Y0111926D02*
X0070200Y0111926D01*
X0070200Y0113924D02*
X0103400Y0113924D01*
X0103400Y0115923D02*
X0070200Y0115923D01*
X0070200Y0117921D02*
X0103400Y0117921D01*
X0119160Y0131911D02*
X0123991Y0131911D01*
X0122171Y0133909D02*
X0120980Y0133909D01*
X0121159Y0129912D02*
X0121993Y0129912D01*
X0121985Y0139905D02*
X0121166Y0139905D01*
X0119168Y0141903D02*
X0123984Y0141903D01*
X0130016Y0141903D02*
X0133984Y0141903D01*
X0132164Y0123917D02*
X0131836Y0123917D01*
M02*
