G75*
%MOIN*%
%OFA0B0*%
%FSLAX25Y25*%
%IPPOS*%
%LPD*%
%AMOC8*
5,1,8,0,0,1.08239X$1,22.5*
%
%ADD10OC8,0.05600*%
%ADD11OC8,0.06000*%
%ADD12C,0.01200*%
%ADD13C,0.02000*%
D10*
X0037000Y0027000D03*
X0037000Y0037000D03*
X0047000Y0037000D03*
X0047000Y0027000D03*
X0057000Y0027000D03*
X0057000Y0037000D03*
X0067000Y0037000D03*
X0067000Y0027000D03*
X0077000Y0027000D03*
X0077000Y0037000D03*
X0087000Y0037000D03*
X0087000Y0027000D03*
X0097000Y0027000D03*
X0097000Y0037000D03*
X0107000Y0037000D03*
X0107000Y0027000D03*
X0117000Y0027000D03*
X0117000Y0037000D03*
X0127000Y0037000D03*
X0127000Y0027000D03*
X0057000Y0077000D03*
X0057000Y0087000D03*
X0047000Y0087000D03*
X0047000Y0077000D03*
X0037000Y0077000D03*
X0037000Y0087000D03*
D11*
X0037000Y0127000D03*
X0037000Y0137000D03*
X0027000Y0137000D03*
X0027000Y0127000D03*
X0047000Y0127000D03*
X0047000Y0137000D03*
X0057000Y0137000D03*
X0057000Y0127000D03*
X0067000Y0127000D03*
X0067000Y0137000D03*
X0097000Y0137000D03*
X0097000Y0127000D03*
X0107000Y0127000D03*
X0107000Y0137000D03*
X0117000Y0137000D03*
X0117000Y0127000D03*
X0127000Y0127000D03*
X0127000Y0137000D03*
X0137000Y0137000D03*
X0137000Y0127000D03*
X0139500Y0069500D03*
X0129500Y0069500D03*
X0119500Y0069500D03*
X0109500Y0069500D03*
X0099500Y0069500D03*
X0089500Y0069500D03*
D12*
X0099500Y0069500D02*
X0107000Y0062000D01*
X0139500Y0062000D01*
X0144500Y0067000D01*
X0144500Y0129500D01*
X0137000Y0137000D01*
X0137000Y0127000D02*
X0137000Y0082000D01*
X0129500Y0074500D01*
X0129500Y0069500D01*
X0109500Y0069500D02*
X0109500Y0079500D01*
X0122000Y0092000D01*
X0122000Y0132000D01*
X0127000Y0137000D01*
X0057000Y0087000D02*
X0092000Y0052000D01*
X0092000Y0032000D01*
X0097000Y0027000D01*
X0097000Y0017000D02*
X0079500Y0017000D01*
X0072000Y0024500D01*
X0072000Y0027000D01*
X0072000Y0029500D01*
X0069500Y0032000D01*
X0064500Y0032000D01*
X0062000Y0034500D01*
X0062000Y0057000D01*
X0047000Y0072000D01*
X0047000Y0077000D01*
X0042000Y0072000D02*
X0042000Y0082000D01*
X0037000Y0087000D01*
X0047000Y0087000D02*
X0052000Y0082000D01*
X0052000Y0072000D01*
X0067000Y0057000D01*
X0077000Y0057000D01*
X0082000Y0052000D01*
X0082000Y0037000D01*
X0082000Y0032000D01*
X0077000Y0027000D01*
X0067000Y0027000D02*
X0067000Y0022000D01*
X0062000Y0017000D01*
X0057000Y0017000D01*
X0052000Y0022000D01*
X0052000Y0062000D01*
X0042000Y0072000D01*
X0097000Y0017000D02*
X0107000Y0027000D01*
D13*
X0017100Y0014600D02*
X0017100Y0144400D01*
X0146900Y0144400D01*
X0146900Y0131625D01*
X0146313Y0132213D01*
X0142600Y0135925D01*
X0142600Y0139320D01*
X0139320Y0142600D01*
X0134680Y0142600D01*
X0132000Y0139920D01*
X0129320Y0142600D01*
X0124680Y0142600D01*
X0121576Y0139495D01*
X0119071Y0142000D01*
X0117000Y0142000D01*
X0117000Y0137000D01*
X0117000Y0137000D01*
X0117000Y0132000D01*
X0117000Y0127000D01*
X0117000Y0127000D01*
X0117000Y0132000D01*
X0118800Y0132000D01*
X0118800Y0132000D01*
X0117000Y0132000D01*
X0114929Y0132000D01*
X0112424Y0129495D01*
X0109920Y0132000D01*
X0112424Y0134505D01*
X0114929Y0132000D01*
X0117000Y0132000D01*
X0117000Y0137000D01*
X0117000Y0137000D01*
X0117000Y0142000D01*
X0114929Y0142000D01*
X0112424Y0139495D01*
X0109320Y0142600D01*
X0104680Y0142600D01*
X0102000Y0139920D01*
X0099320Y0142600D01*
X0094680Y0142600D01*
X0091400Y0139320D01*
X0091400Y0134680D01*
X0094080Y0132000D01*
X0091400Y0129320D01*
X0091400Y0124680D01*
X0094680Y0121400D01*
X0099320Y0121400D01*
X0102000Y0124080D01*
X0104680Y0121400D01*
X0109320Y0121400D01*
X0112424Y0124505D01*
X0114929Y0122000D01*
X0117000Y0122000D01*
X0118800Y0122000D01*
X0118800Y0093325D01*
X0107687Y0082213D01*
X0106787Y0081313D01*
X0106300Y0080137D01*
X0106300Y0074220D01*
X0104500Y0072420D01*
X0101820Y0075100D01*
X0097180Y0075100D01*
X0094076Y0071995D01*
X0091571Y0074500D01*
X0089500Y0074500D01*
X0089500Y0069500D01*
X0089500Y0069500D01*
X0089500Y0064500D01*
X0091571Y0064500D01*
X0094076Y0067005D01*
X0097180Y0063900D01*
X0100575Y0063900D01*
X0104287Y0060187D01*
X0105187Y0059287D01*
X0106363Y0058800D01*
X0140137Y0058800D01*
X0141313Y0059287D01*
X0142213Y0060187D01*
X0146900Y0064875D01*
X0146900Y0014600D01*
X0099125Y0014600D01*
X0099713Y0015187D01*
X0099713Y0015187D01*
X0106125Y0021600D01*
X0109237Y0021600D01*
X0112000Y0024363D01*
X0114763Y0021600D01*
X0119237Y0021600D01*
X0122000Y0024363D01*
X0124763Y0021600D01*
X0129237Y0021600D01*
X0132400Y0024763D01*
X0132400Y0029237D01*
X0129237Y0032400D01*
X0129188Y0032400D01*
X0131800Y0035012D01*
X0131800Y0037000D01*
X0131800Y0038988D01*
X0128988Y0041800D01*
X0127000Y0041800D01*
X0127000Y0037000D01*
X0127000Y0037000D01*
X0131800Y0037000D01*
X0127000Y0037000D01*
X0127000Y0037000D01*
X0127000Y0037000D01*
X0122200Y0037000D01*
X0122200Y0038988D01*
X0125012Y0041800D01*
X0127000Y0041800D01*
X0127000Y0037000D01*
X0122200Y0037000D01*
X0122200Y0035012D01*
X0124812Y0032400D01*
X0124763Y0032400D01*
X0122000Y0029637D01*
X0119237Y0032400D01*
X0119188Y0032400D01*
X0121800Y0035012D01*
X0121800Y0037000D01*
X0121800Y0038988D01*
X0118988Y0041800D01*
X0117000Y0041800D01*
X0117000Y0037000D01*
X0117000Y0037000D01*
X0121800Y0037000D01*
X0117000Y0037000D01*
X0117000Y0037000D01*
X0117000Y0037000D01*
X0112200Y0037000D01*
X0112200Y0038988D01*
X0115012Y0041800D01*
X0117000Y0041800D01*
X0117000Y0037000D01*
X0112200Y0037000D01*
X0112200Y0035012D01*
X0114812Y0032400D01*
X0114763Y0032400D01*
X0112000Y0029637D01*
X0109237Y0032400D01*
X0109188Y0032400D01*
X0111800Y0035012D01*
X0111800Y0037000D01*
X0111800Y0038988D01*
X0108988Y0041800D01*
X0107000Y0041800D01*
X0107000Y0037000D01*
X0107000Y0037000D01*
X0111800Y0037000D01*
X0107000Y0037000D01*
X0107000Y0037000D01*
X0107000Y0037000D01*
X0102200Y0037000D01*
X0102200Y0038988D01*
X0105012Y0041800D01*
X0107000Y0041800D01*
X0107000Y0037000D01*
X0102200Y0037000D01*
X0102200Y0035012D01*
X0104812Y0032400D01*
X0104763Y0032400D01*
X0102000Y0029637D01*
X0099237Y0032400D01*
X0099188Y0032400D01*
X0101800Y0035012D01*
X0101800Y0037000D01*
X0101800Y0038988D01*
X0098988Y0041800D01*
X0097000Y0041800D01*
X0097000Y0037000D01*
X0097000Y0037000D01*
X0101800Y0037000D01*
X0097000Y0037000D01*
X0097000Y0037000D01*
X0097000Y0041800D01*
X0095200Y0041800D01*
X0095200Y0052637D01*
X0094713Y0053813D01*
X0093813Y0054713D01*
X0062400Y0086125D01*
X0062400Y0089237D01*
X0059237Y0092400D01*
X0054763Y0092400D01*
X0052000Y0089637D01*
X0049237Y0092400D01*
X0044763Y0092400D01*
X0042000Y0089637D01*
X0039237Y0092400D01*
X0034763Y0092400D01*
X0031600Y0089237D01*
X0031600Y0084763D01*
X0034363Y0082000D01*
X0031600Y0079237D01*
X0031600Y0074763D01*
X0034763Y0071600D01*
X0038800Y0071600D01*
X0038800Y0071363D01*
X0039287Y0070187D01*
X0040187Y0069287D01*
X0048800Y0060675D01*
X0048800Y0041800D01*
X0047000Y0041800D01*
X0047000Y0037000D01*
X0047000Y0037000D01*
X0047000Y0041800D01*
X0045012Y0041800D01*
X0042400Y0039188D01*
X0042400Y0039237D01*
X0039237Y0042400D01*
X0034763Y0042400D01*
X0031600Y0039237D01*
X0031600Y0034763D01*
X0034363Y0032000D01*
X0031600Y0029237D01*
X0031600Y0024763D01*
X0034763Y0021600D01*
X0039237Y0021600D01*
X0042000Y0024363D01*
X0044763Y0021600D01*
X0048800Y0021600D01*
X0048800Y0021363D01*
X0049287Y0020187D01*
X0050187Y0019287D01*
X0054875Y0014600D01*
X0017100Y0014600D01*
X0017100Y0015997D02*
X0053477Y0015997D01*
X0051479Y0017996D02*
X0017100Y0017996D01*
X0017100Y0019994D02*
X0049480Y0019994D01*
X0044371Y0021993D02*
X0039629Y0021993D01*
X0041628Y0023991D02*
X0042372Y0023991D01*
X0034371Y0021993D02*
X0017100Y0021993D01*
X0017100Y0023991D02*
X0032372Y0023991D01*
X0031600Y0025990D02*
X0017100Y0025990D01*
X0017100Y0027988D02*
X0031600Y0027988D01*
X0032350Y0029987D02*
X0017100Y0029987D01*
X0017100Y0031985D02*
X0034348Y0031985D01*
X0032380Y0033984D02*
X0017100Y0033984D01*
X0017100Y0035982D02*
X0031600Y0035982D01*
X0031600Y0037981D02*
X0017100Y0037981D01*
X0017100Y0039979D02*
X0032342Y0039979D01*
X0034341Y0041978D02*
X0017100Y0041978D01*
X0017100Y0043976D02*
X0048800Y0043976D01*
X0048800Y0041978D02*
X0039659Y0041978D01*
X0041658Y0039979D02*
X0043191Y0039979D01*
X0047000Y0039979D02*
X0047000Y0039979D01*
X0047000Y0037981D02*
X0047000Y0037981D01*
X0048800Y0045975D02*
X0017100Y0045975D01*
X0017100Y0047973D02*
X0048800Y0047973D01*
X0048800Y0049972D02*
X0017100Y0049972D01*
X0017100Y0051970D02*
X0048800Y0051970D01*
X0048800Y0053969D02*
X0017100Y0053969D01*
X0017100Y0055967D02*
X0048800Y0055967D01*
X0048800Y0057966D02*
X0017100Y0057966D01*
X0017100Y0059964D02*
X0048800Y0059964D01*
X0047512Y0061963D02*
X0017100Y0061963D01*
X0017100Y0063961D02*
X0045513Y0063961D01*
X0043515Y0065960D02*
X0017100Y0065960D01*
X0017100Y0067958D02*
X0041516Y0067958D01*
X0039518Y0069957D02*
X0017100Y0069957D01*
X0017100Y0071955D02*
X0034408Y0071955D01*
X0032409Y0073954D02*
X0017100Y0073954D01*
X0017100Y0075952D02*
X0031600Y0075952D01*
X0031600Y0077951D02*
X0017100Y0077951D01*
X0017100Y0079949D02*
X0032313Y0079949D01*
X0034311Y0081948D02*
X0017100Y0081948D01*
X0017100Y0083946D02*
X0032417Y0083946D01*
X0031600Y0085945D02*
X0017100Y0085945D01*
X0017100Y0087943D02*
X0031600Y0087943D01*
X0032305Y0089942D02*
X0017100Y0089942D01*
X0017100Y0091940D02*
X0034304Y0091940D01*
X0039696Y0091940D02*
X0044304Y0091940D01*
X0042305Y0089942D02*
X0041695Y0089942D01*
X0049696Y0091940D02*
X0054304Y0091940D01*
X0052305Y0089942D02*
X0051695Y0089942D01*
X0059696Y0091940D02*
X0117415Y0091940D01*
X0118800Y0093939D02*
X0017100Y0093939D01*
X0017100Y0095937D02*
X0118800Y0095937D01*
X0118800Y0097936D02*
X0017100Y0097936D01*
X0017100Y0099934D02*
X0118800Y0099934D01*
X0118800Y0101933D02*
X0017100Y0101933D01*
X0017100Y0103932D02*
X0118800Y0103932D01*
X0118800Y0105930D02*
X0017100Y0105930D01*
X0017100Y0107929D02*
X0118800Y0107929D01*
X0118800Y0109927D02*
X0017100Y0109927D01*
X0017100Y0111926D02*
X0118800Y0111926D01*
X0118800Y0113924D02*
X0017100Y0113924D01*
X0017100Y0115923D02*
X0118800Y0115923D01*
X0118800Y0117921D02*
X0017100Y0117921D01*
X0017100Y0119920D02*
X0118800Y0119920D01*
X0118800Y0121918D02*
X0109838Y0121918D01*
X0111836Y0123917D02*
X0113012Y0123917D01*
X0117000Y0123917D02*
X0117000Y0123917D01*
X0117000Y0122000D02*
X0117000Y0127000D01*
X0117000Y0122000D01*
X0117000Y0125915D02*
X0117000Y0125915D01*
X0117000Y0127000D02*
X0117000Y0127000D01*
X0117000Y0127914D02*
X0117000Y0127914D01*
X0117000Y0129912D02*
X0117000Y0129912D01*
X0117000Y0131911D02*
X0117000Y0131911D01*
X0117000Y0133909D02*
X0117000Y0133909D01*
X0117000Y0135908D02*
X0117000Y0135908D01*
X0117000Y0137906D02*
X0117000Y0137906D01*
X0117000Y0139905D02*
X0117000Y0139905D01*
X0117000Y0141903D02*
X0117000Y0141903D01*
X0114832Y0141903D02*
X0110016Y0141903D01*
X0112015Y0139905D02*
X0112834Y0139905D01*
X0113020Y0133909D02*
X0111829Y0133909D01*
X0110009Y0131911D02*
X0114840Y0131911D01*
X0112841Y0129912D02*
X0112007Y0129912D01*
X0104162Y0121918D02*
X0099838Y0121918D01*
X0101836Y0123917D02*
X0102164Y0123917D01*
X0094162Y0121918D02*
X0069838Y0121918D01*
X0069320Y0121400D02*
X0072600Y0124680D01*
X0072600Y0129320D01*
X0069920Y0132000D01*
X0072600Y0134680D01*
X0072600Y0139320D01*
X0069320Y0142600D01*
X0064680Y0142600D01*
X0061576Y0139495D01*
X0059071Y0142000D01*
X0057000Y0142000D01*
X0057000Y0137000D01*
X0057000Y0137000D01*
X0057000Y0142000D01*
X0054929Y0142000D01*
X0052424Y0139495D01*
X0049320Y0142600D01*
X0044680Y0142600D01*
X0042000Y0139920D01*
X0039320Y0142600D01*
X0034680Y0142600D01*
X0032000Y0139920D01*
X0029320Y0142600D01*
X0024680Y0142600D01*
X0021400Y0139320D01*
X0021400Y0134680D01*
X0024080Y0132000D01*
X0021400Y0129320D01*
X0021400Y0124680D01*
X0024680Y0121400D01*
X0029320Y0121400D01*
X0032000Y0124080D01*
X0034680Y0121400D01*
X0039320Y0121400D01*
X0042000Y0124080D01*
X0044680Y0121400D01*
X0049320Y0121400D01*
X0052424Y0124505D01*
X0054929Y0122000D01*
X0057000Y0122000D01*
X0059071Y0122000D01*
X0061576Y0124505D01*
X0064680Y0121400D01*
X0069320Y0121400D01*
X0071836Y0123917D02*
X0092164Y0123917D01*
X0091400Y0125915D02*
X0072600Y0125915D01*
X0072600Y0127914D02*
X0091400Y0127914D01*
X0091993Y0129912D02*
X0072007Y0129912D01*
X0070009Y0131911D02*
X0093991Y0131911D01*
X0092171Y0133909D02*
X0071829Y0133909D01*
X0072600Y0135908D02*
X0091400Y0135908D01*
X0091400Y0137906D02*
X0072600Y0137906D01*
X0072015Y0139905D02*
X0091985Y0139905D01*
X0093984Y0141903D02*
X0070016Y0141903D01*
X0063984Y0141903D02*
X0059168Y0141903D01*
X0061166Y0139905D02*
X0061985Y0139905D01*
X0057000Y0139905D02*
X0057000Y0139905D01*
X0057000Y0141903D02*
X0057000Y0141903D01*
X0054832Y0141903D02*
X0050016Y0141903D01*
X0052015Y0139905D02*
X0052834Y0139905D01*
X0057000Y0137906D02*
X0057000Y0137906D01*
X0057000Y0137000D02*
X0057000Y0132000D01*
X0057000Y0127000D01*
X0057000Y0127000D01*
X0057000Y0122000D01*
X0057000Y0127000D01*
X0057000Y0127000D01*
X0057000Y0132000D01*
X0059071Y0132000D01*
X0061576Y0129495D01*
X0064080Y0132000D01*
X0061576Y0134505D01*
X0059071Y0132000D01*
X0057000Y0132000D01*
X0054929Y0132000D01*
X0052424Y0129495D01*
X0049920Y0132000D01*
X0052424Y0134505D01*
X0054929Y0132000D01*
X0057000Y0132000D01*
X0057000Y0137000D01*
X0057000Y0137000D01*
X0057000Y0135908D02*
X0057000Y0135908D01*
X0057000Y0133909D02*
X0057000Y0133909D01*
X0057000Y0131911D02*
X0057000Y0131911D01*
X0054840Y0131911D02*
X0050009Y0131911D01*
X0051829Y0133909D02*
X0053020Y0133909D01*
X0052841Y0129912D02*
X0052007Y0129912D01*
X0057000Y0129912D02*
X0057000Y0129912D01*
X0057000Y0127914D02*
X0057000Y0127914D01*
X0057000Y0125915D02*
X0057000Y0125915D01*
X0057000Y0123917D02*
X0057000Y0123917D01*
X0053012Y0123917D02*
X0051836Y0123917D01*
X0049838Y0121918D02*
X0064162Y0121918D01*
X0062164Y0123917D02*
X0060988Y0123917D01*
X0061159Y0129912D02*
X0061993Y0129912D01*
X0063991Y0131911D02*
X0059160Y0131911D01*
X0060980Y0133909D02*
X0062171Y0133909D01*
X0043984Y0141903D02*
X0040016Y0141903D01*
X0033984Y0141903D02*
X0030016Y0141903D01*
X0023984Y0141903D02*
X0017100Y0141903D01*
X0017100Y0139905D02*
X0021985Y0139905D01*
X0021400Y0137906D02*
X0017100Y0137906D01*
X0017100Y0135908D02*
X0021400Y0135908D01*
X0022171Y0133909D02*
X0017100Y0133909D01*
X0017100Y0131911D02*
X0023991Y0131911D01*
X0021993Y0129912D02*
X0017100Y0129912D01*
X0017100Y0127914D02*
X0021400Y0127914D01*
X0021400Y0125915D02*
X0017100Y0125915D01*
X0017100Y0123917D02*
X0022164Y0123917D01*
X0024162Y0121918D02*
X0017100Y0121918D01*
X0029838Y0121918D02*
X0034162Y0121918D01*
X0032164Y0123917D02*
X0031836Y0123917D01*
X0039838Y0121918D02*
X0044162Y0121918D01*
X0042164Y0123917D02*
X0041836Y0123917D01*
X0017100Y0143902D02*
X0146900Y0143902D01*
X0146900Y0141903D02*
X0140016Y0141903D01*
X0142015Y0139905D02*
X0146900Y0139905D01*
X0146900Y0137906D02*
X0142600Y0137906D01*
X0142618Y0135908D02*
X0146900Y0135908D01*
X0146900Y0133909D02*
X0144616Y0133909D01*
X0146615Y0131911D02*
X0146900Y0131911D01*
X0133984Y0141903D02*
X0130016Y0141903D01*
X0123984Y0141903D02*
X0119168Y0141903D01*
X0121166Y0139905D02*
X0121985Y0139905D01*
X0103984Y0141903D02*
X0100016Y0141903D01*
X0115416Y0089942D02*
X0061695Y0089942D01*
X0062400Y0087943D02*
X0113418Y0087943D01*
X0111419Y0085945D02*
X0062581Y0085945D01*
X0064579Y0083946D02*
X0109421Y0083946D01*
X0107422Y0081948D02*
X0066578Y0081948D01*
X0068576Y0079949D02*
X0106300Y0079949D01*
X0106300Y0077951D02*
X0070575Y0077951D01*
X0072573Y0075952D02*
X0106300Y0075952D01*
X0106034Y0073954D02*
X0102966Y0073954D01*
X0096034Y0073954D02*
X0092117Y0073954D01*
X0089500Y0073954D02*
X0089500Y0073954D01*
X0089500Y0074500D02*
X0087429Y0074500D01*
X0084500Y0071571D01*
X0084500Y0069500D01*
X0089500Y0069500D01*
X0089500Y0069500D01*
X0089500Y0069500D01*
X0089500Y0074500D01*
X0089500Y0071955D02*
X0089500Y0071955D01*
X0089500Y0069957D02*
X0089500Y0069957D01*
X0089500Y0069500D02*
X0084500Y0069500D01*
X0084500Y0067429D01*
X0087429Y0064500D01*
X0089500Y0064500D01*
X0089500Y0069500D01*
X0089500Y0067958D02*
X0089500Y0067958D01*
X0089500Y0065960D02*
X0089500Y0065960D01*
X0093031Y0065960D02*
X0095121Y0065960D01*
X0097119Y0063961D02*
X0084564Y0063961D01*
X0086563Y0061963D02*
X0102512Y0061963D01*
X0104287Y0060187D02*
X0104287Y0060187D01*
X0104510Y0059964D02*
X0088561Y0059964D01*
X0090560Y0057966D02*
X0146900Y0057966D01*
X0146900Y0059964D02*
X0141990Y0059964D01*
X0143988Y0061963D02*
X0146900Y0061963D01*
X0146900Y0063961D02*
X0145987Y0063961D01*
X0146900Y0055967D02*
X0092558Y0055967D01*
X0094557Y0053969D02*
X0146900Y0053969D01*
X0146900Y0051970D02*
X0095200Y0051970D01*
X0095200Y0049972D02*
X0146900Y0049972D01*
X0146900Y0047973D02*
X0095200Y0047973D01*
X0095200Y0045975D02*
X0146900Y0045975D01*
X0146900Y0043976D02*
X0095200Y0043976D01*
X0095200Y0041978D02*
X0146900Y0041978D01*
X0146900Y0039979D02*
X0130809Y0039979D01*
X0131800Y0037981D02*
X0146900Y0037981D01*
X0146900Y0035982D02*
X0131800Y0035982D01*
X0130772Y0033984D02*
X0146900Y0033984D01*
X0146900Y0031985D02*
X0129652Y0031985D01*
X0131650Y0029987D02*
X0146900Y0029987D01*
X0146900Y0027988D02*
X0132400Y0027988D01*
X0132400Y0025990D02*
X0146900Y0025990D01*
X0146900Y0023991D02*
X0131628Y0023991D01*
X0129629Y0021993D02*
X0146900Y0021993D01*
X0146900Y0019994D02*
X0104520Y0019994D01*
X0102521Y0017996D02*
X0146900Y0017996D01*
X0146900Y0015997D02*
X0100522Y0015997D01*
X0109629Y0021993D02*
X0114371Y0021993D01*
X0112372Y0023991D02*
X0111628Y0023991D01*
X0111650Y0029987D02*
X0112350Y0029987D01*
X0114348Y0031985D02*
X0109652Y0031985D01*
X0110772Y0033984D02*
X0113228Y0033984D01*
X0112200Y0035982D02*
X0111800Y0035982D01*
X0111800Y0037981D02*
X0112200Y0037981D01*
X0113191Y0039979D02*
X0110809Y0039979D01*
X0107000Y0039979D02*
X0107000Y0039979D01*
X0107000Y0037981D02*
X0107000Y0037981D01*
X0103191Y0039979D02*
X0100809Y0039979D01*
X0101800Y0037981D02*
X0102200Y0037981D01*
X0102200Y0035982D02*
X0101800Y0035982D01*
X0100772Y0033984D02*
X0103228Y0033984D01*
X0104348Y0031985D02*
X0099652Y0031985D01*
X0101650Y0029987D02*
X0102350Y0029987D01*
X0097000Y0037981D02*
X0097000Y0037981D01*
X0097000Y0039979D02*
X0097000Y0039979D01*
X0088800Y0041800D02*
X0087000Y0041800D01*
X0087000Y0037000D01*
X0087000Y0037000D01*
X0087000Y0041800D01*
X0085200Y0041800D01*
X0085200Y0052637D01*
X0084713Y0053813D01*
X0083813Y0054713D01*
X0078813Y0059713D01*
X0077637Y0060200D01*
X0068325Y0060200D01*
X0056325Y0072200D01*
X0057000Y0072200D01*
X0058988Y0072200D01*
X0061800Y0075012D01*
X0061800Y0077000D01*
X0061800Y0077675D01*
X0088800Y0050675D01*
X0088800Y0041800D01*
X0088800Y0041978D02*
X0085200Y0041978D01*
X0085200Y0043976D02*
X0088800Y0043976D01*
X0088800Y0045975D02*
X0085200Y0045975D01*
X0085200Y0047973D02*
X0088800Y0047973D01*
X0088800Y0049972D02*
X0085200Y0049972D01*
X0085200Y0051970D02*
X0087504Y0051970D01*
X0085506Y0053969D02*
X0084557Y0053969D01*
X0083507Y0055967D02*
X0082558Y0055967D01*
X0081509Y0057966D02*
X0080560Y0057966D01*
X0079510Y0059964D02*
X0078206Y0059964D01*
X0077512Y0061963D02*
X0066563Y0061963D01*
X0064564Y0063961D02*
X0075513Y0063961D01*
X0073515Y0065960D02*
X0062566Y0065960D01*
X0060567Y0067958D02*
X0071516Y0067958D01*
X0069518Y0069957D02*
X0058569Y0069957D01*
X0057000Y0072200D02*
X0057000Y0077000D01*
X0061800Y0077000D01*
X0057000Y0077000D01*
X0057000Y0077000D01*
X0057000Y0077000D01*
X0057000Y0072200D01*
X0056570Y0071955D02*
X0067519Y0071955D01*
X0065521Y0073954D02*
X0060742Y0073954D01*
X0061800Y0075952D02*
X0063522Y0075952D01*
X0057000Y0075952D02*
X0057000Y0075952D01*
X0057000Y0073954D02*
X0057000Y0073954D01*
X0055200Y0059275D02*
X0058800Y0055675D01*
X0058800Y0041800D01*
X0057000Y0041800D01*
X0057000Y0037000D01*
X0057000Y0037000D01*
X0057000Y0041800D01*
X0055200Y0041800D01*
X0055200Y0059275D01*
X0055200Y0057966D02*
X0056509Y0057966D01*
X0055200Y0055967D02*
X0058507Y0055967D01*
X0058800Y0053969D02*
X0055200Y0053969D01*
X0055200Y0051970D02*
X0058800Y0051970D01*
X0058800Y0049972D02*
X0055200Y0049972D01*
X0055200Y0047973D02*
X0058800Y0047973D01*
X0058800Y0045975D02*
X0055200Y0045975D01*
X0055200Y0043976D02*
X0058800Y0043976D01*
X0058800Y0041978D02*
X0055200Y0041978D01*
X0057000Y0039979D02*
X0057000Y0039979D01*
X0057000Y0037981D02*
X0057000Y0037981D01*
X0065200Y0041800D02*
X0065200Y0054282D01*
X0066363Y0053800D01*
X0075675Y0053800D01*
X0078800Y0050675D01*
X0078800Y0041800D01*
X0077000Y0041800D01*
X0077000Y0037000D01*
X0077000Y0037000D01*
X0077000Y0037000D01*
X0072200Y0037000D01*
X0072200Y0038988D01*
X0075012Y0041800D01*
X0077000Y0041800D01*
X0077000Y0037000D01*
X0072200Y0037000D01*
X0072200Y0035012D01*
X0074812Y0032400D01*
X0074763Y0032400D01*
X0074194Y0031831D01*
X0071407Y0034619D01*
X0071800Y0035012D01*
X0071800Y0037000D01*
X0071800Y0038988D01*
X0068988Y0041800D01*
X0067000Y0041800D01*
X0067000Y0037000D01*
X0067000Y0037000D01*
X0071800Y0037000D01*
X0067000Y0037000D01*
X0067000Y0037000D01*
X0067000Y0041800D01*
X0065200Y0041800D01*
X0065200Y0041978D02*
X0078800Y0041978D01*
X0078800Y0043976D02*
X0065200Y0043976D01*
X0065200Y0045975D02*
X0078800Y0045975D01*
X0078800Y0047973D02*
X0065200Y0047973D01*
X0065200Y0049972D02*
X0078800Y0049972D01*
X0077504Y0051970D02*
X0065200Y0051970D01*
X0065200Y0053969D02*
X0065956Y0053969D01*
X0067000Y0039979D02*
X0067000Y0039979D01*
X0067000Y0037981D02*
X0067000Y0037981D01*
X0070809Y0039979D02*
X0073191Y0039979D01*
X0072200Y0037981D02*
X0071800Y0037981D01*
X0071800Y0035982D02*
X0072200Y0035982D01*
X0072042Y0033984D02*
X0073228Y0033984D01*
X0074040Y0031985D02*
X0074348Y0031985D01*
X0077000Y0037981D02*
X0077000Y0037981D01*
X0077000Y0039979D02*
X0077000Y0039979D01*
X0087000Y0039979D02*
X0087000Y0039979D01*
X0087000Y0037981D02*
X0087000Y0037981D01*
X0085969Y0065960D02*
X0082566Y0065960D01*
X0084500Y0067958D02*
X0080567Y0067958D01*
X0078569Y0069957D02*
X0084500Y0069957D01*
X0084884Y0071955D02*
X0076570Y0071955D01*
X0074572Y0073954D02*
X0086883Y0073954D01*
X0117000Y0039979D02*
X0117000Y0039979D01*
X0117000Y0037981D02*
X0117000Y0037981D01*
X0120809Y0039979D02*
X0123191Y0039979D01*
X0122200Y0037981D02*
X0121800Y0037981D01*
X0121800Y0035982D02*
X0122200Y0035982D01*
X0123228Y0033984D02*
X0120772Y0033984D01*
X0119652Y0031985D02*
X0124348Y0031985D01*
X0122350Y0029987D02*
X0121650Y0029987D01*
X0121628Y0023991D02*
X0122372Y0023991D01*
X0124371Y0021993D02*
X0119629Y0021993D01*
X0127000Y0037981D02*
X0127000Y0037981D01*
X0127000Y0039979D02*
X0127000Y0039979D01*
M02*
