%
M48
M72
T01C0.0360
T02C0.0400
%
T01
X3700Y2700
X3700Y3700
X4700Y3700
X4700Y2700
X5700Y2700
X5700Y3700
X6700Y3700
X6700Y2700
X7700Y2700
X7700Y3700
X8700Y3700
X8700Y2700
X9700Y2700
X9700Y3700
X10700Y3700
X10700Y2700
X11700Y2700
X11700Y3700
X12700Y3700
X12700Y2700
X5700Y7700
X5700Y8700
X4700Y8700
X4700Y7700
X3700Y7700
X3700Y8700
T02
X3700Y12700
X3700Y13700
X2700Y13700
X2700Y12700
X4700Y12700
X4700Y13700
X5700Y13700
X5700Y12700
X6700Y12700
X6700Y13700
X9700Y13700
X9700Y12700
X10700Y12700
X10700Y13700
X11700Y13700
X11700Y12700
X12700Y12700
X12700Y13700
X13700Y13700
X13700Y12700
X13950Y6950
X12950Y6950
X11950Y6950
X10950Y6950
X9950Y6950
X8950Y6950
M30
