G75*
%MOIN*%
%OFA0B0*%
%FSLAX25Y25*%
%IPPOS*%
%LPD*%
%AMOC8*
5,1,8,0,0,1.08239X$1,22.5*
%
%ADD10C,0.00000*%
%ADD11C,0.00700*%
D10*
X0014500Y0026300D02*
X0149500Y0026300D01*
X0149500Y0161300D01*
X0014500Y0161300D01*
X0014500Y0026300D01*
D11*
X0025298Y0123275D02*
X0027233Y0125210D01*
X0026265Y0125210D02*
X0029168Y0125210D01*
X0029168Y0123275D02*
X0029168Y0129080D01*
X0026265Y0129080D01*
X0025298Y0128112D01*
X0025298Y0126177D01*
X0026265Y0125210D01*
X0031283Y0123275D02*
X0035153Y0123275D01*
X0035153Y0129080D01*
X0031283Y0129080D01*
X0033218Y0126177D02*
X0035153Y0126177D01*
X0037268Y0129080D02*
X0041138Y0129080D01*
X0043253Y0128112D02*
X0043253Y0126177D01*
X0044221Y0125210D01*
X0047123Y0125210D01*
X0047123Y0123275D02*
X0047123Y0129080D01*
X0044221Y0129080D01*
X0043253Y0128112D01*
X0039203Y0129080D02*
X0039203Y0123275D01*
X0049238Y0123275D02*
X0049238Y0127145D01*
X0051173Y0129080D01*
X0053108Y0127145D01*
X0053108Y0123275D01*
X0055224Y0124242D02*
X0055224Y0128112D01*
X0056191Y0129080D01*
X0059094Y0129080D01*
X0059094Y0123275D01*
X0056191Y0123275D01*
X0055224Y0124242D01*
X0053108Y0126177D02*
X0049238Y0126177D01*
X0061209Y0126177D02*
X0065079Y0126177D01*
X0065079Y0127145D02*
X0063144Y0129080D01*
X0061209Y0127145D01*
X0061209Y0123275D01*
X0065079Y0123275D02*
X0065079Y0127145D01*
X0073179Y0128112D02*
X0074146Y0129080D01*
X0076081Y0129080D01*
X0077049Y0128112D01*
X0077049Y0124242D01*
X0076081Y0123275D01*
X0074146Y0123275D01*
X0073179Y0124242D01*
X0073179Y0126177D01*
X0075114Y0126177D01*
X0079164Y0124242D02*
X0080132Y0123275D01*
X0082066Y0123275D01*
X0083034Y0124242D01*
X0083034Y0129080D01*
X0085149Y0128112D02*
X0085149Y0127145D01*
X0086117Y0126177D01*
X0089019Y0126177D01*
X0089019Y0123275D02*
X0089019Y0129080D01*
X0086117Y0129080D01*
X0085149Y0128112D01*
X0086117Y0126177D02*
X0085149Y0125210D01*
X0085149Y0124242D01*
X0086117Y0123275D01*
X0089019Y0123275D01*
X0091134Y0123275D02*
X0095004Y0123275D01*
X0095004Y0129080D01*
X0091134Y0129080D01*
X0093069Y0126177D02*
X0095004Y0126177D01*
X0097119Y0124242D02*
X0098087Y0123275D01*
X0100989Y0123275D01*
X0100989Y0129080D01*
X0098087Y0129080D01*
X0097119Y0128112D01*
X0097119Y0124242D01*
X0109090Y0123275D02*
X0112960Y0123275D01*
X0109090Y0127145D01*
X0109090Y0128112D01*
X0110057Y0129080D01*
X0111992Y0129080D01*
X0112960Y0128112D01*
X0115075Y0128112D02*
X0115075Y0127145D01*
X0116042Y0126177D01*
X0115075Y0125210D01*
X0115075Y0124242D01*
X0116042Y0123275D01*
X0117977Y0123275D01*
X0118945Y0124242D01*
X0121060Y0123275D02*
X0121060Y0129080D01*
X0122995Y0127145D01*
X0124930Y0129080D01*
X0124930Y0123275D01*
X0128980Y0123275D02*
X0128980Y0129080D01*
X0130915Y0129080D02*
X0127045Y0129080D01*
X0133030Y0128112D02*
X0133998Y0129080D01*
X0135933Y0129080D01*
X0136900Y0128112D01*
X0136900Y0127145D01*
X0135933Y0126177D01*
X0133998Y0126177D01*
X0133030Y0125210D01*
X0133030Y0124242D01*
X0133998Y0123275D01*
X0135933Y0123275D01*
X0136900Y0124242D01*
X0136900Y0117395D02*
X0136900Y0113525D01*
X0136900Y0115460D02*
X0134965Y0117395D01*
X0133998Y0117395D01*
X0131912Y0116427D02*
X0131912Y0114492D01*
X0130945Y0113525D01*
X0129010Y0113525D01*
X0128042Y0115460D02*
X0131912Y0115460D01*
X0131912Y0116427D02*
X0130945Y0117395D01*
X0129010Y0117395D01*
X0128042Y0116427D01*
X0128042Y0115460D01*
X0125927Y0117395D02*
X0123992Y0113525D01*
X0122057Y0117395D01*
X0119942Y0114492D02*
X0118975Y0114492D01*
X0118975Y0113525D01*
X0119942Y0113525D01*
X0119942Y0114492D01*
X0116950Y0113525D02*
X0116950Y0117395D01*
X0115015Y0119330D01*
X0113080Y0117395D01*
X0113080Y0113525D01*
X0113080Y0116427D02*
X0116950Y0116427D01*
X0117010Y0126177D02*
X0116042Y0126177D01*
X0115075Y0128112D02*
X0116042Y0129080D01*
X0117977Y0129080D01*
X0118945Y0128112D01*
X0079164Y0129080D02*
X0079164Y0124242D01*
M02*
