G75*
%MOIN*%
%OFA0B0*%
%FSLAX25Y25*%
%IPPOS*%
%LPD*%
%AMOC8*
5,1,8,0,0,1.08239X$1,22.5*
%
%ADD10OC8,0.06000*%
%ADD11OC8,0.06400*%
%ADD12R,0.02900X0.05400*%
%ADD13OC8,0.05600*%
D10*
X0037000Y0056300D03*
X0037000Y0066300D03*
X0047000Y0066300D03*
X0047000Y0056300D03*
X0057000Y0056300D03*
X0057000Y0066300D03*
X0067000Y0066300D03*
X0067000Y0056300D03*
X0077000Y0056300D03*
X0077000Y0066300D03*
X0087000Y0066300D03*
X0087000Y0056300D03*
X0097000Y0056300D03*
X0097000Y0066300D03*
X0107000Y0066300D03*
X0107000Y0056300D03*
X0117000Y0056300D03*
X0117000Y0066300D03*
X0127000Y0066300D03*
X0127000Y0056300D03*
X0057000Y0103800D03*
X0057000Y0113800D03*
X0047000Y0113800D03*
X0047000Y0103800D03*
X0037000Y0103800D03*
X0037000Y0113800D03*
D11*
X0037000Y0141300D03*
X0037000Y0151300D03*
X0027000Y0151300D03*
X0027000Y0141300D03*
X0047000Y0141300D03*
X0047000Y0151300D03*
X0057000Y0151300D03*
X0057000Y0141300D03*
X0067000Y0141300D03*
X0067000Y0151300D03*
X0097000Y0151300D03*
X0097000Y0141300D03*
X0107000Y0141300D03*
X0107000Y0151300D03*
X0117000Y0151300D03*
X0117000Y0141300D03*
X0127000Y0141300D03*
X0127000Y0151300D03*
X0137000Y0151300D03*
X0137000Y0141300D03*
X0139500Y0096300D03*
X0129500Y0096300D03*
X0119500Y0096300D03*
X0109500Y0096300D03*
X0099500Y0096300D03*
X0089500Y0096300D03*
D12*
X0105400Y0036300D03*
X0108600Y0036300D03*
D13*
X0094500Y0036300D03*
X0084500Y0036300D03*
X0074500Y0036300D03*
X0064500Y0036300D03*
M02*
